<svg width="2890" height="1501" viewBox="0 0 2890 1501" fill="none" xmlns="http://www.w3.org/2000/svg">
<g clip-path="url(#clip0_956_25931)">
<path d="M42.9272 1421.44H141.629V1402.25H121.667C121.667 1402.25 121.83 1383.91 121.372 1366C120.913 1348.08 109.572 1327.16 82.499 1328.33V1402.28H42.9272V1421.44Z" fill="#153952" stroke="black"/>
<path d="M180.927 1421.44H279.629V1402.25H259.667C259.667 1402.25 259.83 1383.91 259.372 1366C258.913 1348.08 247.572 1327.16 220.499 1328.33V1402.28H180.927V1421.44Z" fill="#153952" stroke="black"/>
<path d="M317.927 1421.44H416.629V1402.25H396.667C396.667 1402.25 396.83 1383.91 396.372 1366C395.913 1348.08 384.572 1327.16 357.499 1328.33V1402.28H317.927V1421.44Z" fill="#153952" stroke="black"/>
<path d="M455.927 1421.44H554.629V1402.25H534.667C534.667 1402.25 534.83 1383.91 534.372 1366C533.913 1348.08 522.572 1327.16 495.499 1328.33V1402.28H455.927V1421.44Z" fill="#153952" stroke="black"/>
<path d="M592.927 1421.44H691.629V1402.25H671.667C671.667 1402.25 671.83 1383.91 671.372 1366C670.913 1348.08 659.572 1327.16 632.499 1328.33V1402.28H592.927V1421.44Z" fill="#153952" stroke="black"/>
<path d="M730.927 1421.44H829.629V1402.25H809.667C809.667 1402.25 809.83 1383.91 809.372 1366C808.913 1348.08 797.572 1327.16 770.499 1328.33V1402.28H730.927V1421.44Z" fill="#153952" stroke="black"/>
<path d="M867.927 1421.44H966.629V1402.25H946.667C946.667 1402.25 946.83 1383.91 946.372 1366C945.913 1348.08 934.572 1327.16 907.499 1328.33V1402.28H867.927V1421.44Z" fill="#153952" stroke="black"/>
<path d="M1005.93 1421.44H1104.63V1402.25H1084.67C1084.67 1402.25 1084.83 1383.91 1084.37 1366C1083.91 1348.08 1072.57 1327.16 1045.5 1328.33V1402.28H1005.93V1421.44Z" fill="#153952" stroke="black"/>
<path d="M1144 1422.16H1242.7V1402.96H1222.74C1222.74 1402.96 1222.9 1384.62 1222.44 1366.71C1221.99 1348.8 1210.64 1327.87 1183.57 1329.05V1403H1144V1422.16Z" fill="#153952" stroke="black"/>
<path d="M1282 1422.16H1380.7V1402.96H1360.74C1360.74 1402.96 1360.9 1384.62 1360.44 1366.71C1359.99 1348.8 1348.64 1327.87 1321.57 1329.05V1403H1282V1422.16Z" fill="#153952" stroke="black"/>
<path d="M1419 1422.16H1517.7V1402.96H1497.74C1497.74 1402.96 1497.9 1384.62 1497.44 1366.71C1496.99 1348.8 1485.64 1327.87 1458.57 1329.05V1403H1419V1422.16Z" fill="#153952" stroke="black"/>
<path d="M1557 1422.16H1655.7V1402.96H1635.74C1635.74 1402.96 1635.9 1384.62 1635.44 1366.71C1634.99 1348.8 1623.64 1327.87 1596.57 1329.05V1403H1557V1422.16Z" fill="#153952" stroke="black"/>
<path d="M1694 1422.16H1792.7V1402.96H1772.74C1772.74 1402.96 1772.9 1384.62 1772.44 1366.71C1771.99 1348.8 1760.64 1327.87 1733.57 1329.05V1403H1694V1422.16Z" fill="#153952" stroke="black"/>
<path d="M1832 1422.16H1930.7V1402.96H1910.74C1910.74 1402.96 1910.9 1384.62 1910.44 1366.71C1909.99 1348.8 1898.64 1327.87 1871.57 1329.05V1403H1832V1422.16Z" fill="#153952" stroke="black"/>
<path d="M1969 1422.16H2067.7V1402.96H2047.74C2047.74 1402.96 2047.9 1384.62 2047.44 1366.71C2046.99 1348.8 2035.64 1327.87 2008.57 1329.05V1403H1969V1422.16Z" fill="#153952" stroke="black"/>
<path d="M2107 1422.16H2205.7V1402.96H2185.74C2185.74 1402.96 2185.9 1384.62 2185.44 1366.71C2184.99 1348.8 2173.64 1327.87 2146.57 1329.05V1403H2107V1422.16Z" fill="#153952" stroke="black"/>
<path d="M2243 1422.16H2341.7V1402.96H2321.74C2321.74 1402.96 2321.9 1384.62 2321.44 1366.71C2320.99 1348.8 2309.64 1327.87 2282.57 1329.05V1403H2243V1422.16Z" fill="#153952" stroke="black"/>
<path d="M2380 1422.16H2478.7V1402.96H2458.74C2458.74 1402.96 2458.9 1384.62 2458.44 1366.71C2457.99 1348.8 2446.64 1327.87 2419.57 1329.05V1403H2380V1422.16Z" fill="#153952" stroke="black"/>
<path d="M2518 1422.16H2616.7V1402.96H2596.74C2596.74 1402.96 2596.9 1384.62 2596.44 1366.71C2595.99 1348.8 2584.64 1327.87 2557.57 1329.05V1403H2518V1422.16Z" fill="#153952" stroke="black"/>
<path d="M2655 1422.16H2753.7V1402.96H2733.74C2733.74 1402.96 2733.9 1384.62 2733.44 1366.71C2732.99 1348.8 2721.64 1327.87 2694.57 1329.05V1403H2655V1422.16Z" fill="#153952" stroke="black"/>
<path d="M2793 1422.16H2891.7V1402.96H2871.74C2871.74 1402.96 2871.9 1384.62 2871.44 1366.71C2870.99 1348.8 2859.64 1327.87 2832.57 1329.05V1403H2793V1422.16Z" fill="#153952" stroke="black"/>
<path d="M40.9272 1255.44H139.629V1236.25H119.667C119.667 1236.25 119.83 1217.91 119.372 1200C118.913 1182.08 107.572 1161.16 80.499 1162.33V1236.28H40.9272V1255.44Z" fill="#153952" stroke="black"/>
<path d="M178.927 1255.44H277.629V1236.25H257.667C257.667 1236.25 257.83 1217.91 257.372 1200C256.913 1182.08 245.572 1161.16 218.499 1162.33V1236.28H178.927V1255.44Z" fill="#153952" stroke="black"/>
<path d="M315.927 1255.44H414.629V1236.25H394.667C394.667 1236.25 394.83 1217.91 394.372 1200C393.913 1182.08 382.572 1161.16 355.499 1162.33V1236.28H315.927V1255.44Z" fill="#153952" stroke="black"/>
<path d="M453.927 1255.44H552.629V1236.25H532.667C532.667 1236.25 532.83 1217.91 532.372 1200C531.913 1182.08 520.572 1161.16 493.499 1162.33V1236.28H453.927V1255.44Z" fill="#153952" stroke="black"/>
<path d="M590.927 1255.44H689.629V1236.25H669.667C669.667 1236.25 669.83 1217.91 669.372 1200C668.913 1182.08 657.572 1161.16 630.499 1162.33V1236.28H590.927V1255.44Z" fill="#153952" stroke="black"/>
<path d="M728.927 1255.44H827.629V1236.25H807.667C807.667 1236.25 807.83 1217.91 807.372 1200C806.913 1182.08 795.572 1161.16 768.499 1162.33V1236.28H728.927V1255.44Z" fill="#153952" stroke="black"/>
<path d="M865.927 1255.44H964.629V1236.25H944.667C944.667 1236.25 944.83 1217.91 944.372 1200C943.913 1182.08 932.572 1161.16 905.499 1162.33V1236.28H865.927V1255.44Z" fill="#153952" stroke="black"/>
<path d="M1003.93 1255.44H1102.63V1236.25H1082.67C1082.67 1236.25 1082.83 1217.91 1082.37 1200C1081.91 1182.08 1070.57 1161.16 1043.5 1162.33V1236.28H1003.93V1255.44Z" fill="#153952" stroke="black"/>
<path d="M1142 1256.16H1240.7V1236.96H1220.74C1220.74 1236.96 1220.9 1218.62 1220.44 1200.71C1219.99 1182.8 1208.64 1161.87 1181.57 1163.05V1237H1142V1256.16Z" fill="#153952" stroke="black"/>
<path d="M1280 1256.16H1378.7V1236.96H1358.74C1358.74 1236.96 1358.9 1218.62 1358.44 1200.71C1357.99 1182.8 1346.64 1161.87 1319.57 1163.05V1237H1280V1256.16Z" fill="#153952" stroke="black"/>
<path d="M1417 1256.16H1515.7V1236.96H1495.74C1495.74 1236.96 1495.9 1218.62 1495.44 1200.71C1494.99 1182.8 1483.64 1161.87 1456.57 1163.05V1237H1417V1256.16Z" fill="#153952" stroke="black"/>
<path d="M1555 1256.16H1653.7V1236.96H1633.74C1633.74 1236.96 1633.9 1218.62 1633.44 1200.71C1632.99 1182.8 1621.64 1161.87 1594.57 1163.05V1237H1555V1256.16Z" fill="#153952" stroke="black"/>
<path d="M1692 1256.16H1790.7V1236.96H1770.74C1770.74 1236.96 1770.9 1218.62 1770.44 1200.71C1769.99 1182.8 1758.64 1161.87 1731.57 1163.05V1237H1692V1256.16Z" fill="#153952" stroke="black"/>
<path d="M1830 1256.16H1928.7V1236.96H1908.74C1908.74 1236.96 1908.9 1218.62 1908.44 1200.71C1907.99 1182.8 1896.64 1161.87 1869.57 1163.05V1237H1830V1256.16Z" fill="#153952" stroke="black"/>
<path d="M1967 1256.16H2065.7V1236.96H2045.74C2045.74 1236.96 2045.9 1218.62 2045.44 1200.71C2044.99 1182.8 2033.64 1161.87 2006.57 1163.05V1237H1967V1256.16Z" fill="#153952" stroke="black"/>
<path d="M2105 1256.16H2203.7V1236.96H2183.74C2183.74 1236.96 2183.9 1218.62 2183.44 1200.71C2182.99 1182.8 2171.64 1161.87 2144.57 1163.05V1237H2105V1256.16Z" fill="#153952" stroke="black"/>
<path d="M2241 1256.16H2339.7V1236.96H2319.74C2319.74 1236.96 2319.9 1218.62 2319.44 1200.71C2318.99 1182.8 2307.64 1161.87 2280.57 1163.05V1237H2241V1256.16Z" fill="#153952" stroke="black"/>
<path d="M2378 1256.16H2476.7V1236.96H2456.74C2456.74 1236.96 2456.9 1218.62 2456.44 1200.71C2455.99 1182.8 2444.64 1161.87 2417.57 1163.05V1237H2378V1256.16Z" fill="#153952" stroke="black"/>
<path d="M2516 1256.16H2614.7V1236.96H2594.74C2594.74 1236.96 2594.9 1218.62 2594.44 1200.71C2593.99 1182.8 2582.64 1161.87 2555.57 1163.05V1237H2516V1256.16Z" fill="#153952" stroke="black"/>
<path d="M2653 1256.16H2751.7V1236.96H2731.74C2731.74 1236.96 2731.9 1218.62 2731.44 1200.71C2730.99 1182.8 2719.64 1161.87 2692.57 1163.05V1237H2653V1256.16Z" fill="#153952" stroke="black"/>
<path d="M2791 1256.16H2889.7V1236.96H2869.74C2869.74 1236.96 2869.9 1218.62 2869.44 1200.71C2868.99 1182.8 2857.64 1161.87 2830.57 1163.05V1237H2791V1256.16Z" fill="#153952" stroke="black"/>
<path d="M42.9272 1089.44H141.629V1070.25H121.667C121.667 1070.25 121.83 1051.91 121.372 1034C120.913 1016.08 109.572 995.156 82.499 996.335V1070.28H42.9272V1089.44Z" fill="#153952" stroke="black"/>
<path d="M180.927 1089.44H279.629V1070.25H259.667C259.667 1070.25 259.83 1051.91 259.372 1034C258.913 1016.08 247.572 995.156 220.499 996.335V1070.28H180.927V1089.44Z" fill="#153952" stroke="black"/>
<path d="M317.927 1089.44H416.629V1070.25H396.667C396.667 1070.25 396.83 1051.91 396.372 1034C395.913 1016.08 384.572 995.156 357.499 996.335V1070.28H317.927V1089.44Z" fill="#153952" stroke="black"/>
<path d="M455.927 1089.44H554.629V1070.25H534.667C534.667 1070.25 534.83 1051.91 534.372 1034C533.913 1016.08 522.572 995.156 495.499 996.335V1070.28H455.927V1089.44Z" fill="#153952" stroke="black"/>
<path d="M592.927 1089.44H691.629V1070.25H671.667C671.667 1070.25 671.83 1051.91 671.372 1034C670.913 1016.08 659.572 995.156 632.499 996.335V1070.28H592.927V1089.44Z" fill="#153952" stroke="black"/>
<path d="M730.927 1089.44H829.629V1070.25H809.667C809.667 1070.25 809.83 1051.91 809.372 1034C808.913 1016.08 797.572 995.156 770.499 996.335V1070.28H730.927V1089.44Z" fill="#153952" stroke="black"/>
<path d="M867.927 1089.44H966.629V1070.25H946.667C946.667 1070.25 946.83 1051.91 946.372 1034C945.913 1016.08 934.572 995.156 907.499 996.335V1070.28H867.927V1089.44Z" fill="#153952" stroke="black"/>
<path d="M1005.93 1089.44H1104.63V1070.25H1084.67C1084.67 1070.25 1084.83 1051.91 1084.37 1034C1083.91 1016.08 1072.57 995.156 1045.5 996.335V1070.28H1005.93V1089.44Z" fill="#153952" stroke="black"/>
<path d="M1144 1090.16H1242.7V1070.96H1222.74C1222.74 1070.96 1222.9 1052.62 1222.44 1034.71C1221.99 1016.8 1210.64 995.869 1183.57 997.048V1071H1144V1090.16Z" fill="#153952" stroke="black"/>
<path d="M1282 1090.16H1380.7V1070.96H1360.74C1360.74 1070.96 1360.9 1052.62 1360.44 1034.71C1359.99 1016.8 1348.64 995.869 1321.57 997.048V1071H1282V1090.16Z" fill="#153952" stroke="black"/>
<path d="M1419 1090.16H1517.7V1070.96H1497.74C1497.74 1070.96 1497.9 1052.62 1497.44 1034.71C1496.99 1016.8 1485.64 995.869 1458.57 997.048V1071H1419V1090.16Z" fill="#153952" stroke="black"/>
<path d="M1557 1090.16H1655.7V1070.96H1635.74C1635.74 1070.96 1635.9 1052.62 1635.44 1034.71C1634.99 1016.8 1623.64 995.869 1596.57 997.048V1071H1557V1090.16Z" fill="#153952" stroke="black"/>
<path d="M1694 1090.16H1792.7V1070.96H1772.74C1772.74 1070.96 1772.9 1052.62 1772.44 1034.71C1771.99 1016.8 1760.64 995.869 1733.57 997.048V1071H1694V1090.16Z" fill="#153952" stroke="black"/>
<path d="M1832 1090.16H1930.7V1070.96H1910.74C1910.74 1070.96 1910.9 1052.62 1910.44 1034.71C1909.99 1016.8 1898.64 995.869 1871.57 997.048V1071H1832V1090.16Z" fill="#153952" stroke="black"/>
<path d="M1969 1090.16H2067.7V1070.96H2047.74C2047.74 1070.96 2047.9 1052.62 2047.44 1034.71C2046.99 1016.8 2035.64 995.869 2008.57 997.048V1071H1969V1090.16Z" fill="#153952" stroke="black"/>
<path d="M2107 1090.16H2205.7V1070.96H2185.74C2185.74 1070.96 2185.9 1052.62 2185.44 1034.71C2184.99 1016.8 2173.64 995.869 2146.57 997.048V1071H2107V1090.16Z" fill="#153952" stroke="black"/>
<path d="M2243 1090.16H2341.7V1070.96H2321.74C2321.74 1070.96 2321.9 1052.62 2321.44 1034.71C2320.99 1016.8 2309.64 995.869 2282.57 997.048V1071H2243V1090.16Z" fill="#153952" stroke="black"/>
<path d="M2380 1090.16H2478.7V1070.96H2458.74C2458.74 1070.96 2458.9 1052.62 2458.44 1034.71C2457.99 1016.8 2446.64 995.869 2419.57 997.048V1071H2380V1090.16Z" fill="#153952" stroke="black"/>
<path d="M2518 1090.16H2616.7V1070.96H2596.74C2596.74 1070.96 2596.9 1052.62 2596.44 1034.71C2595.99 1016.8 2584.64 995.869 2557.57 997.048V1071H2518V1090.16Z" fill="#153952" stroke="black"/>
<path d="M2655 1090.16H2753.7V1070.96H2733.74C2733.74 1070.96 2733.9 1052.62 2733.44 1034.71C2732.99 1016.8 2721.64 995.869 2694.57 997.048V1071H2655V1090.16Z" fill="#153952" stroke="black"/>
<path d="M2793 1090.16H2891.7V1070.96H2871.74C2871.74 1070.96 2871.9 1052.62 2871.44 1034.71C2870.99 1016.8 2859.64 995.869 2832.57 997.048V1071H2793V1090.16Z" fill="#153952" stroke="black"/>
<path d="M40.9272 923.443H139.629V904.248H119.667C119.667 904.248 119.83 885.908 119.372 867.996C118.913 850.083 107.572 829.156 80.499 830.335V904.282H40.9272V923.443Z" fill="#153952" stroke="black"/>
<path d="M178.927 923.443H277.629V904.248H257.667C257.667 904.248 257.83 885.908 257.372 867.996C256.913 850.083 245.572 829.156 218.499 830.335V904.282H178.927V923.443Z" fill="#153952" stroke="black"/>
<path d="M315.927 923.443H414.629V904.248H394.667C394.667 904.248 394.83 885.908 394.372 867.996C393.913 850.083 382.572 829.156 355.499 830.335V904.282H315.927V923.443Z" fill="#153952" stroke="black"/>
<path d="M453.927 923.443H552.629V904.248H532.667C532.667 904.248 532.83 885.908 532.372 867.996C531.913 850.083 520.572 829.156 493.499 830.335V904.282H453.927V923.443Z" fill="#153952" stroke="black"/>
<path d="M590.927 923.443H689.629V904.248H669.667C669.667 904.248 669.83 885.908 669.372 867.996C668.913 850.083 657.572 829.156 630.499 830.335V904.282H590.927V923.443Z" fill="#153952" stroke="black"/>
<path d="M728.927 923.443H827.629V904.248H807.667C807.667 904.248 807.83 885.908 807.372 867.996C806.913 850.083 795.572 829.156 768.499 830.335V904.282H728.927V923.443Z" fill="#153952" stroke="black"/>
<path d="M865.927 923.443H964.629V904.248H944.667C944.667 904.248 944.83 885.908 944.372 867.996C943.913 850.083 932.572 829.156 905.499 830.335V904.282H865.927V923.443Z" fill="#153952" stroke="black"/>
<path d="M1003.93 923.443H1102.63V904.248H1082.67C1082.67 904.248 1082.83 885.908 1082.37 867.996C1081.91 850.083 1070.57 829.156 1043.5 830.335V904.282H1003.93V923.443Z" fill="#153952" stroke="black"/>
<path d="M1142 924.156H1240.7V904.96H1220.74C1220.74 904.96 1220.9 886.621 1220.44 868.708C1219.99 850.796 1208.64 829.869 1181.57 831.048V904.995H1142V924.156Z" fill="#153952" stroke="black"/>
<path d="M1280 924.156H1378.7V904.96H1358.74C1358.74 904.96 1358.9 886.621 1358.44 868.708C1357.99 850.796 1346.64 829.869 1319.57 831.048V904.995H1280V924.156Z" fill="#153952" stroke="black"/>
<path d="M1417 924.156H1515.7V904.96H1495.74C1495.74 904.96 1495.9 886.621 1495.44 868.708C1494.99 850.796 1483.64 829.869 1456.57 831.048V904.995H1417V924.156Z" fill="#153952" stroke="black"/>
<path d="M1554 924.156H1652.7V904.96H1632.74C1632.74 904.96 1632.9 886.621 1632.44 868.708C1631.99 850.796 1620.64 829.869 1593.57 831.048V904.995H1554V924.156Z" fill="#153952" stroke="black"/>
<path d="M1692 924.156H1790.7V904.96H1770.74C1770.74 904.96 1770.9 886.621 1770.44 868.708C1769.99 850.796 1758.64 829.869 1731.57 831.048V904.995H1692V924.156Z" fill="#153952" stroke="black"/>
<path d="M1830 924.156H1928.7V904.96H1908.74C1908.74 904.96 1908.9 886.621 1908.44 868.708C1907.99 850.796 1896.64 829.869 1869.57 831.048V904.995H1830V924.156Z" fill="#153952" stroke="black"/>
<path d="M1967 924.156H2065.7V904.96H2045.74C2045.74 904.96 2045.9 886.621 2045.44 868.708C2044.99 850.796 2033.64 829.869 2006.57 831.048V904.995H1967V924.156Z" fill="#153952" stroke="black"/>
<path d="M2105 924.156H2203.7V904.96H2183.74C2183.74 904.96 2183.9 886.621 2183.44 868.708C2182.99 850.796 2171.64 829.869 2144.57 831.048V904.995H2105V924.156Z" fill="#153952" stroke="black"/>
<path d="M2241 924.156H2339.7V904.96H2319.74C2319.74 904.96 2319.9 886.621 2319.44 868.708C2318.99 850.796 2307.64 829.869 2280.57 831.048V904.995H2241V924.156Z" fill="#153952" stroke="black"/>
<path d="M2378 924.156H2476.7V904.96H2456.74C2456.74 904.96 2456.9 886.621 2456.44 868.708C2455.99 850.796 2444.64 829.869 2417.57 831.048V904.995H2378V924.156Z" fill="#153952" stroke="black"/>
<path d="M2516 924.156H2614.7V904.96H2594.74C2594.74 904.96 2594.9 886.621 2594.44 868.708C2593.99 850.796 2582.64 829.869 2555.57 831.048V904.995H2516V924.156Z" fill="#153952" stroke="black"/>
<path d="M2653 924.156H2751.7V904.96H2731.74C2731.74 904.96 2731.9 886.621 2731.44 868.708C2730.99 850.796 2719.64 829.869 2692.57 831.048V904.995H2653V924.156Z" fill="#153952" stroke="black"/>
<path d="M2791 924.156H2889.7V904.96H2869.74C2869.74 904.96 2869.9 886.621 2869.44 868.708C2868.99 850.796 2857.64 829.869 2830.57 831.048V904.995H2791V924.156Z" fill="#153952" stroke="black"/>
<path d="M41 755.156H139.702V735.96H119.74C119.74 735.96 119.903 717.621 119.444 699.708C118.986 681.796 107.644 660.869 80.5717 662.048V735.995H41V755.156Z" fill="#153952" stroke="black"/>
<path d="M179 755.156H277.702V735.96H257.74C257.74 735.96 257.903 717.621 257.444 699.708C256.986 681.796 245.644 660.869 218.572 662.048V735.995H179V755.156Z" fill="#153952" stroke="black"/>
<path d="M316 755.156H414.702V735.96H394.74C394.74 735.96 394.903 717.621 394.444 699.708C393.986 681.796 382.644 660.869 355.572 662.048V735.995H316V755.156Z" fill="#153952" stroke="black"/>
<path d="M454 755.156H552.702V735.96H532.74C532.74 735.96 532.903 717.621 532.444 699.708C531.986 681.796 520.644 660.869 493.572 662.048V735.995H454V755.156Z" fill="#153952" stroke="black"/>
<path d="M591 755.156H689.702V735.96H669.74C669.74 735.96 669.903 717.621 669.444 699.708C668.986 681.796 657.644 660.869 630.572 662.048V735.995H591V755.156Z" fill="#153952" stroke="black"/>
<path d="M729 755.156H827.702V735.96H807.74C807.74 735.96 807.903 717.621 807.444 699.708C806.986 681.796 795.644 660.869 768.572 662.048V735.995H729V755.156Z" fill="#153952" stroke="black"/>
<path d="M866 755.156H964.702V735.96H944.74C944.74 735.96 944.903 717.621 944.444 699.708C943.986 681.796 932.644 660.869 905.572 662.048V735.995H866V755.156Z" fill="#153952" stroke="black"/>
<path d="M1004 755.156H1102.7V735.96H1082.74C1082.74 735.96 1082.9 717.621 1082.44 699.708C1081.99 681.796 1070.64 660.869 1043.57 662.048V735.995H1004V755.156Z" fill="#153952" stroke="black"/>
<path d="M1142.07 755.869H1240.77V736.673H1220.81C1220.81 736.673 1220.98 718.334 1220.52 700.421C1220.06 682.509 1208.72 661.582 1181.64 662.76V736.708H1142.07V755.869Z" fill="#153952" stroke="black"/>
<path d="M1280.07 755.869H1378.77V736.673H1358.81C1358.81 736.673 1358.98 718.334 1358.52 700.421C1358.06 682.509 1346.72 661.582 1319.64 662.76V736.708H1280.07V755.869Z" fill="#153952" stroke="black"/>
<path d="M1417.07 755.869H1515.77V736.673H1495.81C1495.81 736.673 1495.98 718.334 1495.52 700.421C1495.06 682.509 1483.72 661.582 1456.64 662.76V736.708H1417.07V755.869Z" fill="#153952" stroke="black"/>
<path d="M1555.07 755.869H1653.77V736.673H1633.81C1633.81 736.673 1633.98 718.334 1633.52 700.421C1633.06 682.509 1621.72 661.582 1594.64 662.76V736.708H1555.07V755.869Z" fill="#153952" stroke="black"/>
<path d="M1692.07 755.869H1790.77V736.673H1770.81C1770.81 736.673 1770.98 718.334 1770.52 700.421C1770.06 682.509 1758.72 661.582 1731.64 662.76V736.708H1692.07V755.869Z" fill="#153952" stroke="black"/>
<path d="M1830.07 755.869H1928.77V736.673H1908.81C1908.81 736.673 1908.98 718.334 1908.52 700.421C1908.06 682.509 1896.72 661.582 1869.64 662.76V736.708H1830.07V755.869Z" fill="#153952" stroke="black"/>
<path d="M1967.07 755.869H2065.77V736.673H2045.81C2045.81 736.673 2045.98 718.334 2045.52 700.421C2045.06 682.509 2033.72 661.582 2006.64 662.76V736.708H1967.07V755.869Z" fill="#153952" stroke="black"/>
<path d="M2105.07 755.869H2203.77V736.673H2183.81C2183.81 736.673 2183.98 718.334 2183.52 700.421C2183.06 682.509 2171.72 661.582 2144.64 662.76V736.708H2105.07V755.869Z" fill="#153952" stroke="black"/>
<path d="M2241.07 755.869H2339.77V736.673H2319.81C2319.81 736.673 2319.98 718.334 2319.52 700.421C2319.06 682.509 2307.72 661.582 2280.64 662.76V736.708H2241.07V755.869Z" fill="#153952" stroke="black"/>
<path d="M2378.07 755.869H2476.77V736.673H2456.81C2456.81 736.673 2456.98 718.334 2456.52 700.421C2456.06 682.509 2444.72 661.582 2417.64 662.76V736.708H2378.07V755.869Z" fill="#153952" stroke="black"/>
<path d="M2516.07 755.869H2614.77V736.673H2594.81C2594.81 736.673 2594.98 718.334 2594.52 700.421C2594.06 682.509 2582.72 661.582 2555.64 662.76V736.708H2516.07V755.869Z" fill="#153952" stroke="black"/>
<path d="M2653.07 755.869H2751.77V736.673H2731.81C2731.81 736.673 2731.98 718.334 2731.52 700.421C2731.06 682.509 2719.72 661.582 2692.64 662.76V736.708H2653.07V755.869Z" fill="#153952" stroke="black"/>
<path d="M2791.07 755.869H2889.77V736.673H2869.81C2869.81 736.673 2869.98 718.334 2869.52 700.421C2869.06 682.509 2857.72 661.582 2830.64 662.76V736.708H2791.07V755.869Z" fill="#153952" stroke="black"/>
<path d="M39 589.156H137.702V569.96H117.74C117.74 569.96 117.903 551.621 117.444 533.708C116.986 515.796 105.644 494.869 78.5717 496.048V569.995H39V589.156Z" fill="#153952" stroke="black"/>
<path d="M177 589.156H275.702V569.96H255.74C255.74 569.96 255.903 551.621 255.444 533.708C254.986 515.796 243.644 494.869 216.572 496.048V569.995H177V589.156Z" fill="#153952" stroke="black"/>
<path d="M314 589.156H412.702V569.96H392.74C392.74 569.96 392.903 551.621 392.444 533.708C391.986 515.796 380.644 494.869 353.572 496.048V569.995H314V589.156Z" fill="#153952" stroke="black"/>
<path d="M452 589.156H550.702V569.96H530.74C530.74 569.96 530.903 551.621 530.444 533.708C529.986 515.796 518.644 494.869 491.572 496.048V569.995H452V589.156Z" fill="#153952" stroke="black"/>
<path d="M589 589.156H687.702V569.96H667.74C667.74 569.96 667.903 551.621 667.444 533.708C666.986 515.796 655.644 494.869 628.572 496.048V569.995H589V589.156Z" fill="#153952" stroke="black"/>
<path d="M727 589.156H825.702V569.96H805.74C805.74 569.96 805.903 551.621 805.444 533.708C804.986 515.796 793.644 494.869 766.572 496.048V569.995H727V589.156Z" fill="#153952" stroke="black"/>
<path d="M864 589.156H962.702V569.96H942.74C942.74 569.96 942.903 551.621 942.444 533.708C941.986 515.796 930.644 494.869 903.572 496.048V569.995H864V589.156Z" fill="#153952" stroke="black"/>
<path d="M1002 589.156H1100.7V569.96H1080.74C1080.74 569.96 1080.9 551.621 1080.44 533.708C1079.99 515.796 1068.64 494.869 1041.57 496.048V569.995H1002V589.156Z" fill="#153952" stroke="black"/>
<path d="M1140.07 589.869H1238.77V570.673H1218.81C1218.81 570.673 1218.98 552.334 1218.52 534.421C1218.06 516.509 1206.72 495.582 1179.64 496.76V570.708H1140.07V589.869Z" fill="#153952" stroke="black"/>
<path d="M1278.07 589.869H1376.77V570.673H1356.81C1356.81 570.673 1356.98 552.334 1356.52 534.421C1356.06 516.509 1344.72 495.582 1317.64 496.76V570.708H1278.07V589.869Z" fill="#153952" stroke="black"/>
<path d="M1415.07 589.869H1513.77V570.673H1493.81C1493.81 570.673 1493.98 552.334 1493.52 534.421C1493.06 516.509 1481.72 495.582 1454.64 496.76V570.708H1415.07V589.869Z" fill="#153952" stroke="black"/>
<path d="M1553.07 589.869H1651.77V570.673H1631.81C1631.81 570.673 1631.98 552.334 1631.52 534.421C1631.06 516.509 1619.72 495.582 1592.64 496.76V570.708H1553.07V589.869Z" fill="#153952" stroke="black"/>
<path d="M1690.07 589.869H1788.77V570.673H1768.81C1768.81 570.673 1768.98 552.334 1768.52 534.421C1768.06 516.509 1756.72 495.582 1729.64 496.76V570.708H1690.07V589.869Z" fill="#153952" stroke="black"/>
<path d="M1828.07 589.869H1926.77V570.673H1906.81C1906.81 570.673 1906.98 552.334 1906.52 534.421C1906.06 516.509 1894.72 495.582 1867.64 496.76V570.708H1828.07V589.869Z" fill="#153952" stroke="black"/>
<path d="M1965.07 589.869H2063.77V570.673H2043.81C2043.81 570.673 2043.98 552.334 2043.52 534.421C2043.06 516.509 2031.72 495.582 2004.64 496.76V570.708H1965.07V589.869Z" fill="#153952" stroke="black"/>
<path d="M2103.07 589.869H2201.77V570.673H2181.81C2181.81 570.673 2181.98 552.334 2181.52 534.421C2181.06 516.509 2169.72 495.582 2142.64 496.76V570.708H2103.07V589.869Z" fill="#153952" stroke="black"/>
<path d="M2239.07 589.869H2337.77V570.673H2317.81C2317.81 570.673 2317.98 552.334 2317.52 534.421C2317.06 516.509 2305.72 495.582 2278.64 496.76V570.708H2239.07V589.869Z" fill="#153952" stroke="black"/>
<path d="M2376.07 589.869H2474.77V570.673H2454.81C2454.81 570.673 2454.98 552.334 2454.52 534.421C2454.06 516.509 2442.72 495.582 2415.64 496.76V570.708H2376.07V589.869Z" fill="#153952" stroke="black"/>
<path d="M2514.07 589.869H2612.77V570.673H2592.81C2592.81 570.673 2592.98 552.334 2592.52 534.421C2592.06 516.509 2580.72 495.582 2553.64 496.76V570.708H2514.07V589.869Z" fill="#153952" stroke="black"/>
<path d="M2651.07 589.869H2749.77V570.673H2729.81C2729.81 570.673 2729.98 552.334 2729.52 534.421C2729.06 516.509 2717.72 495.582 2690.64 496.76V570.708H2651.07V589.869Z" fill="#153952" stroke="black"/>
<path d="M2789.07 589.869H2887.77V570.673H2867.81C2867.81 570.673 2867.98 552.334 2867.52 534.421C2867.06 516.509 2855.72 495.582 2828.64 496.76V570.708H2789.07V589.869Z" fill="#153952" stroke="black"/>
<path d="M41 423.156H139.702V403.96H119.74C119.74 403.96 119.903 385.621 119.444 367.708C118.986 349.796 107.644 328.869 80.5717 330.048V403.995H41V423.156Z" fill="#153952" stroke="black"/>
<path d="M179 423.156H277.702V403.96H257.74C257.74 403.96 257.903 385.621 257.444 367.708C256.986 349.796 245.644 328.869 218.572 330.048V403.995H179V423.156Z" fill="#153952" stroke="black"/>
<path d="M316 423.156H414.702V403.96H394.74C394.74 403.96 394.903 385.621 394.444 367.708C393.986 349.796 382.644 328.869 355.572 330.048V403.995H316V423.156Z" fill="#153952" stroke="black"/>
<path d="M454 423.156H552.702V403.96H532.74C532.74 403.96 532.903 385.621 532.444 367.708C531.986 349.796 520.644 328.869 493.572 330.048V403.995H454V423.156Z" fill="#153952" stroke="black"/>
<path d="M591 423.156H689.702V403.96H669.74C669.74 403.96 669.903 385.621 669.444 367.708C668.986 349.796 657.644 328.869 630.572 330.048V403.995H591V423.156Z" fill="#153952" stroke="black"/>
<path d="M729 423.156H827.702V403.96H807.74C807.74 403.96 807.903 385.621 807.444 367.708C806.986 349.796 795.644 328.869 768.572 330.048V403.995H729V423.156Z" fill="#153952" stroke="black"/>
<path d="M866 423.156H964.702V403.96H944.74C944.74 403.96 944.903 385.621 944.444 367.708C943.986 349.796 932.644 328.869 905.572 330.048V403.995H866V423.156Z" fill="#153952" stroke="black"/>
<path d="M1004 423.156H1102.7V403.96H1082.74C1082.74 403.96 1082.9 385.621 1082.44 367.708C1081.99 349.796 1070.64 328.869 1043.57 330.048V403.995H1004V423.156Z" fill="#153952" stroke="black"/>
<path d="M1142.07 423.869H1240.77V404.673H1220.81C1220.81 404.673 1220.98 386.334 1220.52 368.421C1220.06 350.509 1208.72 329.582 1181.64 330.76V404.708H1142.07V423.869Z" fill="#153952" stroke="black"/>
<path d="M1280.07 423.869H1378.77V404.673H1358.81C1358.81 404.673 1358.98 386.334 1358.52 368.421C1358.06 350.509 1346.72 329.582 1319.64 330.76V404.708H1280.07V423.869Z" fill="#153952" stroke="black"/>
<path d="M1417.07 423.869H1515.77V404.673H1495.81C1495.81 404.673 1495.98 386.334 1495.52 368.421C1495.06 350.509 1483.72 329.582 1456.64 330.76V404.708H1417.07V423.869Z" fill="#153952" stroke="black"/>
<path d="M1555.07 423.869H1653.77V404.673H1633.81C1633.81 404.673 1633.98 386.334 1633.52 368.421C1633.06 350.509 1621.72 329.582 1594.64 330.76V404.708H1555.07V423.869Z" fill="#153952" stroke="black"/>
<path d="M1692.07 423.869H1790.77V404.673H1770.81C1770.81 404.673 1770.98 386.334 1770.52 368.421C1770.06 350.509 1758.72 329.582 1731.64 330.76V404.708H1692.07V423.869Z" fill="#153952" stroke="black"/>
<path d="M1830.07 423.869H1928.77V404.673H1908.81C1908.81 404.673 1908.98 386.334 1908.52 368.421C1908.06 350.509 1896.72 329.582 1869.64 330.76V404.708H1830.07V423.869Z" fill="#153952" stroke="black"/>
<path d="M1967.07 423.869H2065.77V404.673H2045.81C2045.81 404.673 2045.98 386.334 2045.52 368.421C2045.06 350.509 2033.72 329.582 2006.64 330.76V404.708H1967.07V423.869Z" fill="#153952" stroke="black"/>
<path d="M2105.07 423.869H2203.77V404.673H2183.81C2183.81 404.673 2183.98 386.334 2183.52 368.421C2183.06 350.509 2171.72 329.582 2144.64 330.76V404.708H2105.07V423.869Z" fill="#153952" stroke="black"/>
<path d="M2241.07 423.869H2339.77V404.673H2319.81C2319.81 404.673 2319.98 386.334 2319.52 368.421C2319.06 350.509 2307.72 329.582 2280.64 330.76V404.708H2241.07V423.869Z" fill="#153952" stroke="black"/>
<path d="M2378.07 423.869H2476.77V404.673H2456.81C2456.81 404.673 2456.98 386.334 2456.52 368.421C2456.06 350.509 2444.72 329.582 2417.64 330.76V404.708H2378.07V423.869Z" fill="#153952" stroke="black"/>
<path d="M2516.07 423.869H2614.77V404.673H2594.81C2594.81 404.673 2594.98 386.334 2594.52 368.421C2594.06 350.509 2582.72 329.582 2555.64 330.76V404.708H2516.07V423.869Z" fill="#153952" stroke="black"/>
<path d="M2653.07 423.869H2751.77V404.673H2731.81C2731.81 404.673 2731.98 386.334 2731.52 368.421C2731.06 350.509 2719.72 329.582 2692.64 330.76V404.708H2653.07V423.869Z" fill="#153952" stroke="black"/>
<path d="M2791.07 423.869H2889.77V404.673H2869.81C2869.81 404.673 2869.98 386.334 2869.52 368.421C2869.06 350.509 2857.72 329.582 2830.64 330.76V404.708H2791.07V423.869Z" fill="#153952" stroke="black"/>
<path d="M41 257.156H139.702V237.96H119.74C119.74 237.96 119.903 219.621 119.444 201.708C118.986 183.796 107.644 162.869 80.5717 164.048V237.995H41V257.156Z" fill="#153952" stroke="black"/>
<path d="M179 257.156H277.702V237.96H257.74C257.74 237.96 257.903 219.621 257.444 201.708C256.986 183.796 245.644 162.869 218.572 164.048V237.995H179V257.156Z" fill="#153952" stroke="black"/>
<path d="M316 257.156H414.702V237.96H394.74C394.74 237.96 394.903 219.621 394.444 201.708C393.986 183.796 382.644 162.869 355.572 164.048V237.995H316V257.156Z" fill="#153952" stroke="black"/>
<path d="M454 257.156H552.702V237.96H532.74C532.74 237.96 532.903 219.621 532.444 201.708C531.986 183.796 520.644 162.869 493.572 164.048V237.995H454V257.156Z" fill="#153952" stroke="black"/>
<path d="M591 257.156H689.702V237.96H669.74C669.74 237.96 669.903 219.621 669.444 201.708C668.986 183.796 657.644 162.869 630.572 164.048V237.995H591V257.156Z" fill="#153952" stroke="black"/>
<path d="M729 257.156H827.702V237.96H807.74C807.74 237.96 807.903 219.621 807.444 201.708C806.986 183.796 795.644 162.869 768.572 164.048V237.995H729V257.156Z" fill="#153952" stroke="black"/>
<path d="M866 257.156H964.702V237.96H944.74C944.74 237.96 944.903 219.621 944.444 201.708C943.986 183.796 932.644 162.869 905.572 164.048V237.995H866V257.156Z" fill="#153952" stroke="black"/>
<path d="M1004 257.156H1102.7V237.96H1082.74C1082.74 237.96 1082.9 219.621 1082.44 201.708C1081.99 183.796 1070.64 162.869 1043.57 164.048V237.995H1004V257.156Z" fill="#153952" stroke="black"/>
<path d="M1142.07 257.869H1240.77V238.673H1220.81C1220.81 238.673 1220.98 220.334 1220.52 202.421C1220.06 184.509 1208.72 163.582 1181.64 164.76V238.708H1142.07V257.869Z" fill="#153952" stroke="black"/>
<path d="M1280.07 257.869H1378.77V238.673H1358.81C1358.81 238.673 1358.98 220.334 1358.52 202.421C1358.06 184.509 1346.72 163.582 1319.64 164.76V238.708H1280.07V257.869Z" fill="#153952" stroke="black"/>
<path d="M1417.07 257.869H1515.77V238.673H1495.81C1495.81 238.673 1495.98 220.334 1495.52 202.421C1495.06 184.509 1483.72 163.582 1456.64 164.76V238.708H1417.07V257.869Z" fill="#153952" stroke="black"/>
<path d="M1555.07 257.869H1653.77V238.673H1633.81C1633.81 238.673 1633.98 220.334 1633.52 202.421C1633.06 184.509 1621.72 163.582 1594.64 164.76V238.708H1555.07V257.869Z" fill="#153952" stroke="black"/>
<path d="M1692.07 257.869H1790.77V238.673H1770.81C1770.81 238.673 1770.98 220.334 1770.52 202.421C1770.06 184.509 1758.72 163.582 1731.64 164.76V238.708H1692.07V257.869Z" fill="#153952" stroke="black"/>
<path d="M1830.07 257.869H1928.77V238.673H1908.81C1908.81 238.673 1908.98 220.334 1908.52 202.421C1908.06 184.509 1896.72 163.582 1869.64 164.76V238.708H1830.07V257.869Z" fill="#153952" stroke="black"/>
<path d="M1967.07 257.869H2065.77V238.673H2045.81C2045.81 238.673 2045.98 220.334 2045.52 202.421C2045.06 184.509 2033.72 163.582 2006.64 164.76V238.708H1967.07V257.869Z" fill="#153952" stroke="black"/>
<path d="M2105.07 257.869H2203.77V238.673H2183.81C2183.81 238.673 2183.98 220.334 2183.52 202.421C2183.06 184.509 2171.72 163.582 2144.64 164.76V238.708H2105.07V257.869Z" fill="#153952" stroke="black"/>
<path d="M2241.07 257.869H2339.77V238.673H2319.81C2319.81 238.673 2319.98 220.334 2319.52 202.421C2319.06 184.509 2307.72 163.582 2280.64 164.76V238.708H2241.07V257.869Z" fill="#153952" stroke="black"/>
<path d="M2378.07 257.869H2476.77V238.673H2456.81C2456.81 238.673 2456.98 220.334 2456.52 202.421C2456.06 184.509 2444.72 163.582 2417.64 164.76V238.708H2378.07V257.869Z" fill="#153952" stroke="black"/>
<path d="M2516.07 257.869H2614.77V238.673H2594.81C2594.81 238.673 2594.98 220.334 2594.52 202.421C2594.06 184.509 2582.72 163.582 2555.64 164.76V238.708H2516.07V257.869Z" fill="#153952" stroke="black"/>
<path d="M2653.07 257.869H2751.77V238.673H2731.81C2731.81 238.673 2731.98 220.334 2731.52 202.421C2731.06 184.509 2719.72 163.582 2692.64 164.76V238.708H2653.07V257.869Z" fill="#153952" stroke="black"/>
<path d="M2791.07 257.869H2889.77V238.673H2869.81C2869.81 238.673 2869.98 220.334 2869.52 202.421C2869.06 184.509 2857.72 163.582 2830.64 164.76V238.708H2791.07V257.869Z" fill="#153952" stroke="black"/>
<path d="M41 90.1563H139.702V70.9604H119.74C119.74 70.9604 119.903 52.6212 119.444 34.7084C118.986 16.7957 107.644 -4.13087 80.5717 -2.95239V70.9951H41V90.1563Z" fill="#153952" stroke="black"/>
<path d="M179 90.1563H277.702V70.9604H257.74C257.74 70.9604 257.903 52.6212 257.444 34.7084C256.986 16.7957 245.644 -4.13087 218.572 -2.95239V70.9951H179V90.1563Z" fill="#153952" stroke="black"/>
<path d="M316 90.1563H414.702V70.9604H394.74C394.74 70.9604 394.903 52.6212 394.444 34.7084C393.986 16.7957 382.644 -4.13087 355.572 -2.95239V70.9951H316V90.1563Z" fill="#153952" stroke="black"/>
<path d="M454 90.1563H552.702V70.9604H532.74C532.74 70.9604 532.903 52.6212 532.444 34.7084C531.986 16.7957 520.644 -4.13087 493.572 -2.95239V70.9951H454V90.1563Z" fill="#153952" stroke="black"/>
<path d="M591 90.1563H689.702V70.9604H669.74C669.74 70.9604 669.903 52.6212 669.444 34.7084C668.986 16.7957 657.644 -4.13087 630.572 -2.95239V70.9951H591V90.1563Z" fill="#153952" stroke="black"/>
<path d="M729 90.1563H827.702V70.9604H807.74C807.74 70.9604 807.903 52.6212 807.444 34.7084C806.986 16.7957 795.644 -4.13087 768.572 -2.95239V70.9951H729V90.1563Z" fill="#153952" stroke="black"/>
<path d="M866 90.1563H964.702V70.9604H944.74C944.74 70.9604 944.903 52.6212 944.444 34.7084C943.986 16.7957 932.644 -4.13087 905.572 -2.95239V70.9951H866V90.1563Z" fill="#153952" stroke="black"/>
<path d="M1004 90.1563H1102.7V70.9604H1082.74C1082.74 70.9604 1082.9 52.6212 1082.44 34.7084C1081.99 16.7957 1070.64 -4.13087 1043.57 -2.95239V70.9951H1004V90.1563Z" fill="#153952" stroke="black"/>
<path d="M1142.07 90.8692H1240.77V71.6733H1220.81C1220.81 71.6733 1220.98 53.3341 1220.52 35.4213C1220.06 17.5086 1208.72 -3.41798 1181.64 -2.2395V71.708H1142.07V90.8692Z" fill="#153952" stroke="black"/>
<path d="M1280.07 90.8692H1378.77V71.6733H1358.81C1358.81 71.6733 1358.98 53.3341 1358.52 35.4213C1358.06 17.5086 1346.72 -3.41798 1319.64 -2.2395V71.708H1280.07V90.8692Z" fill="#153952" stroke="black"/>
<path d="M1417.07 90.8692H1515.77V71.6733H1495.81C1495.81 71.6733 1495.98 53.3341 1495.52 35.4213C1495.06 17.5086 1483.72 -3.41798 1456.64 -2.2395V71.708H1417.07V90.8692Z" fill="#153952" stroke="black"/>
<path d="M1555.07 90.8692H1653.77V71.6733H1633.81C1633.81 71.6733 1633.98 53.3341 1633.52 35.4213C1633.06 17.5086 1621.72 -3.41798 1594.64 -2.2395V71.708H1555.07V90.8692Z" fill="#153952" stroke="black"/>
<path d="M1692.07 90.8692H1790.77V71.6733H1770.81C1770.81 71.6733 1770.98 53.3341 1770.52 35.4213C1770.06 17.5086 1758.72 -3.41798 1731.64 -2.2395V71.708H1692.07V90.8692Z" fill="#153952" stroke="black"/>
<path d="M1830.07 90.8692H1928.77V71.6733H1908.81C1908.81 71.6733 1908.98 53.3341 1908.52 35.4213C1908.06 17.5086 1896.72 -3.41798 1869.64 -2.2395V71.708H1830.07V90.8692Z" fill="#153952" stroke="black"/>
<path d="M1967.07 90.8692H2065.77V71.6733H2045.81C2045.81 71.6733 2045.98 53.3341 2045.52 35.4213C2045.06 17.5086 2033.72 -3.41798 2006.64 -2.2395V71.708H1967.07V90.8692Z" fill="#153952" stroke="black"/>
<path d="M2105.07 90.8692H2203.77V71.6733H2183.81C2183.81 71.6733 2183.98 53.3341 2183.52 35.4213C2183.06 17.5086 2171.72 -3.41798 2144.64 -2.2395V71.708H2105.07V90.8692Z" fill="#153952" stroke="black"/>
<path d="M2241.07 90.8692H2339.77V71.6733H2319.81C2319.81 71.6733 2319.98 53.3341 2319.52 35.4213C2319.06 17.5086 2307.72 -3.41798 2280.64 -2.2395V71.708H2241.07V90.8692Z" fill="#153952" stroke="black"/>
<path d="M2378.07 90.8692H2476.77V71.6733H2456.81C2456.81 71.6733 2456.98 53.3341 2456.52 35.4213C2456.06 17.5086 2444.72 -3.41798 2417.64 -2.2395V71.708H2378.07V90.8692Z" fill="#153952" stroke="black"/>
<path d="M2516.07 90.8692H2614.77V71.6733H2594.81C2594.81 71.6733 2594.98 53.3341 2594.52 35.4213C2594.06 17.5086 2582.72 -3.41798 2555.64 -2.2395V71.708H2516.07V90.8692Z" fill="#153952" stroke="black"/>
<path d="M2653.07 90.8692H2751.77V71.6733H2731.81C2731.81 71.6733 2731.98 53.3341 2731.52 35.4213C2731.06 17.5086 2719.72 -3.41798 2692.64 -2.2395V71.708H2653.07V90.8692Z" fill="#153952" stroke="black"/>
<path d="M2791.07 90.8692H2889.77V71.6733H2869.81C2869.81 71.6733 2869.98 53.3341 2869.52 35.4213C2869.06 17.5086 2857.72 -3.41798 2830.64 -2.2395V71.708H2791.07V90.8692Z" fill="#153952" stroke="black"/>
</g>
<defs>
<clipPath id="clip0_956_25931">
<rect width="2890" height="1501" fill="white"/>
</clipPath>
</defs>
</svg>
