<svg width="2890" height="1501" viewBox="0 0 2890 1501" fill="none" xmlns="http://www.w3.org/2000/svg">
<g clip-path="url(#clip0_956_25930)">
<ellipse cx="22.0548" cy="1305.62" rx="19.6563" ry="23.0384" fill="#E57100" stroke="black"/>
<rect x="2" y="1236" width="78.1851" height="19.1958" fill="#E57100" stroke="black"/>
<path d="M40.8145 1327.98V1236H80.4332C80.4332 1236 81.0274 1273.37 80.5585 1290.98C80.0895 1308.58 68.4941 1329.14 40.8145 1327.98Z" fill="#E57100" stroke="black"/>
<ellipse cx="22.0548" cy="1472.62" rx="19.6563" ry="23.0384" fill="#E57100" stroke="black"/>
<rect x="2" y="1403" width="78.1851" height="19.1958" fill="#E57100" stroke="black"/>
<path d="M40.8145 1494.98V1403H80.4332C80.4332 1403 81.0274 1440.37 80.5585 1457.98C80.0895 1475.58 68.4941 1496.14 40.8145 1494.98Z" fill="#E57100" stroke="black"/>
<ellipse cx="159.055" cy="1305.62" rx="19.6563" ry="23.0384" fill="#E57100" stroke="black"/>
<rect x="139" y="1236" width="78.1851" height="19.1958" fill="#E57100" stroke="black"/>
<path d="M177.814 1327.98V1236H217.433C217.433 1236 218.027 1273.37 217.558 1290.98C217.09 1308.58 205.494 1329.14 177.814 1327.98Z" fill="#E57100" stroke="black"/>
<ellipse cx="160.055" cy="1471.62" rx="19.6563" ry="23.0384" fill="#E57100" stroke="black"/>
<rect x="140" y="1402" width="78.1851" height="19.1958" fill="#E57100" stroke="black"/>
<path d="M178.814 1493.98V1402H218.433C218.433 1402 219.027 1439.37 218.558 1456.98C218.09 1474.58 206.494 1495.14 178.814 1493.98Z" fill="#E57100" stroke="black"/>
<ellipse cx="297.055" cy="1305.62" rx="19.6563" ry="23.0384" fill="#E57100" stroke="black"/>
<rect x="277" y="1236" width="78.1851" height="19.1958" fill="#E57100" stroke="black"/>
<path d="M315.814 1327.98V1236H355.433C355.433 1236 356.027 1273.37 355.558 1290.98C355.09 1308.58 343.494 1329.14 315.814 1327.98Z" fill="#E57100" stroke="black"/>
<ellipse cx="297.055" cy="1472.62" rx="19.6563" ry="23.0384" fill="#E57100" stroke="black"/>
<rect x="277" y="1403" width="78.1851" height="19.1958" fill="#E57100" stroke="black"/>
<path d="M315.814 1494.98V1403H355.433C355.433 1403 356.027 1440.37 355.558 1457.98C355.09 1475.58 343.494 1496.14 315.814 1494.98Z" fill="#E57100" stroke="black"/>
<ellipse cx="434.055" cy="1305.62" rx="19.6563" ry="23.0384" fill="#E57100" stroke="black"/>
<rect x="414" y="1236" width="78.1851" height="19.1958" fill="#E57100" stroke="black"/>
<path d="M452.814 1327.98V1236H492.433C492.433 1236 493.027 1273.37 492.558 1290.98C492.09 1308.58 480.494 1329.14 452.814 1327.98Z" fill="#E57100" stroke="black"/>
<ellipse cx="435.055" cy="1471.62" rx="19.6563" ry="23.0384" fill="#E57100" stroke="black"/>
<rect x="415" y="1402" width="78.1851" height="19.1958" fill="#E57100" stroke="black"/>
<path d="M453.814 1493.98V1402H493.433C493.433 1402 494.027 1439.37 493.558 1456.98C493.09 1474.58 481.494 1495.14 453.814 1493.98Z" fill="#E57100" stroke="black"/>
<ellipse cx="572.055" cy="1305.62" rx="19.6563" ry="23.0384" fill="#E57100" stroke="black"/>
<rect x="552" y="1236" width="78.1851" height="19.1958" fill="#E57100" stroke="black"/>
<path d="M590.814 1327.98V1236H630.433C630.433 1236 631.027 1273.37 630.558 1290.98C630.09 1308.58 618.494 1329.14 590.814 1327.98Z" fill="#E57100" stroke="black"/>
<ellipse cx="572.055" cy="1472.62" rx="19.6563" ry="23.0384" fill="#E57100" stroke="black"/>
<rect x="552" y="1403" width="78.1851" height="19.1958" fill="#E57100" stroke="black"/>
<path d="M590.814 1494.98V1403H630.433C630.433 1403 631.027 1440.37 630.558 1457.98C630.09 1475.58 618.494 1496.14 590.814 1494.98Z" fill="#E57100" stroke="black"/>
<ellipse cx="709.055" cy="1305.62" rx="19.6563" ry="23.0384" fill="#E57100" stroke="black"/>
<rect x="689" y="1236" width="78.1851" height="19.1958" fill="#E57100" stroke="black"/>
<path d="M727.814 1327.98V1236H767.433C767.433 1236 768.027 1273.37 767.558 1290.98C767.09 1308.58 755.494 1329.14 727.814 1327.98Z" fill="#E57100" stroke="black"/>
<ellipse cx="710.055" cy="1471.62" rx="19.6563" ry="23.0384" fill="#E57100" stroke="black"/>
<rect x="690" y="1402" width="78.1851" height="19.1958" fill="#E57100" stroke="black"/>
<path d="M728.814 1493.98V1402H768.433C768.433 1402 769.027 1439.37 768.558 1456.98C768.09 1474.58 756.494 1495.14 728.814 1493.98Z" fill="#E57100" stroke="black"/>
<ellipse cx="22.0548" cy="1305.62" rx="19.6563" ry="23.0384" fill="#E57100" stroke="black"/>
<rect x="2" y="1236" width="78.1851" height="19.1958" fill="#E57100" stroke="black"/>
<path d="M40.8145 1327.98V1236H80.4332C80.4332 1236 81.0274 1273.37 80.5585 1290.98C80.0895 1308.58 68.4941 1329.14 40.8145 1327.98Z" fill="#E57100" stroke="black"/>
<ellipse cx="22.0548" cy="1472.62" rx="19.6563" ry="23.0384" fill="#E57100" stroke="black"/>
<rect x="2" y="1403" width="78.1851" height="19.1958" fill="#E57100" stroke="black"/>
<path d="M40.8145 1494.98V1403H80.4332C80.4332 1403 81.0274 1440.37 80.5585 1457.98C80.0895 1475.58 68.4941 1496.14 40.8145 1494.98Z" fill="#E57100" stroke="black"/>
<ellipse cx="159.055" cy="1305.62" rx="19.6563" ry="23.0384" fill="#E57100" stroke="black"/>
<rect x="139" y="1236" width="78.1851" height="19.1958" fill="#E57100" stroke="black"/>
<path d="M177.814 1327.98V1236H217.433C217.433 1236 218.027 1273.37 217.558 1290.98C217.09 1308.58 205.494 1329.14 177.814 1327.98Z" fill="#E57100" stroke="black"/>
<ellipse cx="160.055" cy="1471.62" rx="19.6563" ry="23.0384" fill="#E57100" stroke="black"/>
<rect x="140" y="1402" width="78.1851" height="19.1958" fill="#E57100" stroke="black"/>
<path d="M178.814 1493.98V1402H218.433C218.433 1402 219.027 1439.37 218.558 1456.98C218.09 1474.58 206.494 1495.14 178.814 1493.98Z" fill="#E57100" stroke="black"/>
<ellipse cx="297.055" cy="1305.62" rx="19.6563" ry="23.0384" fill="#E57100" stroke="black"/>
<rect x="277" y="1236" width="78.1851" height="19.1958" fill="#E57100" stroke="black"/>
<path d="M315.814 1327.98V1236H355.433C355.433 1236 356.027 1273.37 355.558 1290.98C355.09 1308.58 343.494 1329.14 315.814 1327.98Z" fill="#E57100" stroke="black"/>
<ellipse cx="297.055" cy="1472.62" rx="19.6563" ry="23.0384" fill="#E57100" stroke="black"/>
<rect x="277" y="1403" width="78.1851" height="19.1958" fill="#E57100" stroke="black"/>
<path d="M315.814 1494.98V1403H355.433C355.433 1403 356.027 1440.37 355.558 1457.98C355.09 1475.58 343.494 1496.14 315.814 1494.98Z" fill="#E57100" stroke="black"/>
<ellipse cx="434.055" cy="1305.62" rx="19.6563" ry="23.0384" fill="#E57100" stroke="black"/>
<rect x="414" y="1236" width="78.1851" height="19.1958" fill="#E57100" stroke="black"/>
<path d="M452.814 1327.98V1236H492.433C492.433 1236 493.027 1273.37 492.558 1290.98C492.09 1308.58 480.494 1329.14 452.814 1327.98Z" fill="#E57100" stroke="black"/>
<ellipse cx="435.055" cy="1471.62" rx="19.6563" ry="23.0384" fill="#E57100" stroke="black"/>
<rect x="415" y="1402" width="78.1851" height="19.1958" fill="#E57100" stroke="black"/>
<path d="M453.814 1493.98V1402H493.433C493.433 1402 494.027 1439.37 493.558 1456.98C493.09 1474.58 481.494 1495.14 453.814 1493.98Z" fill="#E57100" stroke="black"/>
<ellipse cx="572.055" cy="1305.62" rx="19.6563" ry="23.0384" fill="#E57100" stroke="black"/>
<rect x="552" y="1236" width="78.1851" height="19.1958" fill="#E57100" stroke="black"/>
<path d="M590.814 1327.98V1236H630.433C630.433 1236 631.027 1273.37 630.558 1290.98C630.09 1308.58 618.494 1329.14 590.814 1327.98Z" fill="#E57100" stroke="black"/>
<ellipse cx="572.055" cy="1472.62" rx="19.6563" ry="23.0384" fill="#E57100" stroke="black"/>
<rect x="552" y="1403" width="78.1851" height="19.1958" fill="#E57100" stroke="black"/>
<path d="M590.814 1494.98V1403H630.433C630.433 1403 631.027 1440.37 630.558 1457.98C630.09 1475.58 618.494 1496.14 590.814 1494.98Z" fill="#E57100" stroke="black"/>
<ellipse cx="709.055" cy="1305.62" rx="19.6563" ry="23.0384" fill="#E57100" stroke="black"/>
<rect x="689" y="1236" width="78.1851" height="19.1958" fill="#E57100" stroke="black"/>
<path d="M727.814 1327.98V1236H767.433C767.433 1236 768.027 1273.37 767.558 1290.98C767.09 1308.58 755.494 1329.14 727.814 1327.98Z" fill="#E57100" stroke="black"/>
<ellipse cx="710.055" cy="1471.62" rx="19.6563" ry="23.0384" fill="#E57100" stroke="black"/>
<rect x="690" y="1402" width="78.1851" height="19.1958" fill="#E57100" stroke="black"/>
<path d="M728.814 1493.98V1402H768.433C768.433 1402 769.027 1439.37 768.558 1456.98C768.09 1474.58 756.494 1495.14 728.814 1493.98Z" fill="#E57100" stroke="black"/>
<ellipse cx="21.0548" cy="972.624" rx="19.6563" ry="23.0384" fill="#E57100" stroke="black"/>
<rect x="1" y="903" width="78.1851" height="19.1958" fill="#E57100" stroke="black"/>
<path d="M39.8145 994.981V903H79.4332C79.4332 903 80.0274 940.374 79.5585 957.975C79.0895 975.576 67.4941 996.139 39.8145 994.981Z" fill="#E57100" stroke="black"/>
<ellipse cx="21.0548" cy="1139.62" rx="19.6563" ry="23.0384" fill="#E57100" stroke="black"/>
<rect x="1" y="1070" width="78.1851" height="19.1958" fill="#E57100" stroke="black"/>
<path d="M39.8145 1161.98V1070H79.4332C79.4332 1070 80.0274 1107.37 79.5585 1124.98C79.0895 1142.58 67.4941 1163.14 39.8145 1161.98Z" fill="#E57100" stroke="black"/>
<ellipse cx="158.055" cy="972.624" rx="19.6563" ry="23.0384" fill="#E57100" stroke="black"/>
<rect x="138" y="903" width="78.1851" height="19.1958" fill="#E57100" stroke="black"/>
<path d="M176.814 994.981V903H216.433C216.433 903 217.027 940.374 216.558 957.975C216.09 975.576 204.494 996.139 176.814 994.981Z" fill="#E57100" stroke="black"/>
<ellipse cx="159.055" cy="1138.62" rx="19.6563" ry="23.0384" fill="#E57100" stroke="black"/>
<rect x="139" y="1069" width="78.1851" height="19.1958" fill="#E57100" stroke="black"/>
<path d="M177.814 1160.98V1069H217.433C217.433 1069 218.027 1106.37 217.558 1123.98C217.09 1141.58 205.494 1162.14 177.814 1160.98Z" fill="#E57100" stroke="black"/>
<ellipse cx="296.055" cy="972.624" rx="19.6563" ry="23.0384" fill="#E57100" stroke="black"/>
<rect x="276" y="903" width="78.1851" height="19.1958" fill="#E57100" stroke="black"/>
<path d="M314.814 994.981V903H354.433C354.433 903 355.027 940.374 354.558 957.975C354.09 975.576 342.494 996.139 314.814 994.981Z" fill="#E57100" stroke="black"/>
<ellipse cx="296.055" cy="1139.62" rx="19.6563" ry="23.0384" fill="#E57100" stroke="black"/>
<rect x="276" y="1070" width="78.1851" height="19.1958" fill="#E57100" stroke="black"/>
<path d="M314.814 1161.98V1070H354.433C354.433 1070 355.027 1107.37 354.558 1124.98C354.09 1142.58 342.494 1163.14 314.814 1161.98Z" fill="#E57100" stroke="black"/>
<ellipse cx="433.055" cy="972.624" rx="19.6563" ry="23.0384" fill="#E57100" stroke="black"/>
<rect x="413" y="903" width="78.1851" height="19.1958" fill="#E57100" stroke="black"/>
<path d="M451.814 994.981V903H491.433C491.433 903 492.027 940.374 491.558 957.975C491.09 975.576 479.494 996.139 451.814 994.981Z" fill="#E57100" stroke="black"/>
<ellipse cx="434.055" cy="1138.62" rx="19.6563" ry="23.0384" fill="#E57100" stroke="black"/>
<rect x="414" y="1069" width="78.1851" height="19.1958" fill="#E57100" stroke="black"/>
<path d="M452.814 1160.98V1069H492.433C492.433 1069 493.027 1106.37 492.558 1123.98C492.09 1141.58 480.494 1162.14 452.814 1160.98Z" fill="#E57100" stroke="black"/>
<ellipse cx="571.055" cy="972.624" rx="19.6563" ry="23.0384" fill="#E57100" stroke="black"/>
<rect x="551" y="903" width="78.1851" height="19.1958" fill="#E57100" stroke="black"/>
<path d="M589.814 994.981V903H629.433C629.433 903 630.027 940.374 629.558 957.975C629.09 975.576 617.494 996.139 589.814 994.981Z" fill="#E57100" stroke="black"/>
<ellipse cx="571.055" cy="1139.62" rx="19.6563" ry="23.0384" fill="#E57100" stroke="black"/>
<rect x="551" y="1070" width="78.1851" height="19.1958" fill="#E57100" stroke="black"/>
<path d="M589.814 1161.98V1070H629.433C629.433 1070 630.027 1107.37 629.558 1124.98C629.09 1142.58 617.494 1163.14 589.814 1161.98Z" fill="#E57100" stroke="black"/>
<ellipse cx="708.055" cy="972.624" rx="19.6563" ry="23.0384" fill="#E57100" stroke="black"/>
<rect x="688" y="903" width="78.1851" height="19.1958" fill="#E57100" stroke="black"/>
<path d="M726.814 994.981V903H766.433C766.433 903 767.027 940.374 766.558 957.975C766.09 975.576 754.494 996.139 726.814 994.981Z" fill="#E57100" stroke="black"/>
<ellipse cx="709.055" cy="1138.62" rx="19.6563" ry="23.0384" fill="#E57100" stroke="black"/>
<rect x="689" y="1069" width="78.1851" height="19.1958" fill="#E57100" stroke="black"/>
<path d="M727.814 1160.98V1069H767.433C767.433 1069 768.027 1106.37 767.558 1123.98C767.09 1141.58 755.494 1162.14 727.814 1160.98Z" fill="#E57100" stroke="black"/>
<ellipse cx="21.0548" cy="639.624" rx="19.6563" ry="23.0384" fill="#E57100" stroke="black"/>
<rect x="1" y="570" width="78.1851" height="19.1958" fill="#E57100" stroke="black"/>
<path d="M39.8145 661.981V570H79.4332C79.4332 570 80.0274 607.374 79.5585 624.975C79.0895 642.576 67.4941 663.139 39.8145 661.981Z" fill="#E57100" stroke="black"/>
<ellipse cx="21.0548" cy="806.624" rx="19.6563" ry="23.0384" fill="#E57100" stroke="black"/>
<rect x="1" y="737" width="78.1851" height="19.1958" fill="#E57100" stroke="black"/>
<path d="M39.8145 828.981V737H79.4332C79.4332 737 80.0274 774.374 79.5585 791.975C79.0895 809.576 67.4941 830.139 39.8145 828.981Z" fill="#E57100" stroke="black"/>
<ellipse cx="158.055" cy="639.624" rx="19.6563" ry="23.0384" fill="#E57100" stroke="black"/>
<rect x="138" y="570" width="78.1851" height="19.1958" fill="#E57100" stroke="black"/>
<path d="M176.814 661.981V570H216.433C216.433 570 217.027 607.374 216.558 624.975C216.09 642.576 204.494 663.139 176.814 661.981Z" fill="#E57100" stroke="black"/>
<ellipse cx="159.055" cy="805.624" rx="19.6563" ry="23.0384" fill="#E57100" stroke="black"/>
<rect x="139" y="736" width="78.1851" height="19.1958" fill="#E57100" stroke="black"/>
<path d="M177.814 827.981V736H217.433C217.433 736 218.027 773.374 217.558 790.975C217.09 808.576 205.494 829.139 177.814 827.981Z" fill="#E57100" stroke="black"/>
<ellipse cx="296.055" cy="639.624" rx="19.6563" ry="23.0384" fill="#E57100" stroke="black"/>
<rect x="276" y="570" width="78.1851" height="19.1958" fill="#E57100" stroke="black"/>
<path d="M314.814 661.981V570H354.433C354.433 570 355.027 607.374 354.558 624.975C354.09 642.576 342.494 663.139 314.814 661.981Z" fill="#E57100" stroke="black"/>
<ellipse cx="296.055" cy="806.624" rx="19.6563" ry="23.0384" fill="#E57100" stroke="black"/>
<rect x="276" y="737" width="78.1851" height="19.1958" fill="#E57100" stroke="black"/>
<path d="M314.814 828.981V737H354.433C354.433 737 355.027 774.374 354.558 791.975C354.09 809.576 342.494 830.139 314.814 828.981Z" fill="#E57100" stroke="black"/>
<ellipse cx="433.055" cy="639.624" rx="19.6563" ry="23.0384" fill="#E57100" stroke="black"/>
<rect x="413" y="570" width="78.1851" height="19.1958" fill="#E57100" stroke="black"/>
<path d="M451.814 661.981V570H491.433C491.433 570 492.027 607.374 491.558 624.975C491.09 642.576 479.494 663.139 451.814 661.981Z" fill="#E57100" stroke="black"/>
<ellipse cx="434.055" cy="805.624" rx="19.6563" ry="23.0384" fill="#E57100" stroke="black"/>
<rect x="414" y="736" width="78.1851" height="19.1958" fill="#E57100" stroke="black"/>
<path d="M452.814 827.981V736H492.433C492.433 736 493.027 773.374 492.558 790.975C492.09 808.576 480.494 829.139 452.814 827.981Z" fill="#E57100" stroke="black"/>
<ellipse cx="571.055" cy="639.624" rx="19.6563" ry="23.0384" fill="#E57100" stroke="black"/>
<rect x="551" y="570" width="78.1851" height="19.1958" fill="#E57100" stroke="black"/>
<path d="M589.814 661.981V570H629.433C629.433 570 630.027 607.374 629.558 624.975C629.09 642.576 617.494 663.139 589.814 661.981Z" fill="#E57100" stroke="black"/>
<ellipse cx="571.055" cy="806.624" rx="19.6563" ry="23.0384" fill="#E57100" stroke="black"/>
<rect x="551" y="737" width="78.1851" height="19.1958" fill="#E57100" stroke="black"/>
<path d="M589.814 828.981V737H629.433C629.433 737 630.027 774.374 629.558 791.975C629.09 809.576 617.494 830.139 589.814 828.981Z" fill="#E57100" stroke="black"/>
<ellipse cx="708.055" cy="639.624" rx="19.6563" ry="23.0384" fill="#E57100" stroke="black"/>
<rect x="688" y="570" width="78.1851" height="19.1958" fill="#E57100" stroke="black"/>
<path d="M726.814 661.981V570H766.433C766.433 570 767.027 607.374 766.558 624.975C766.09 642.576 754.494 663.139 726.814 661.981Z" fill="#E57100" stroke="black"/>
<ellipse cx="709.055" cy="805.624" rx="19.6563" ry="23.0384" fill="#E57100" stroke="black"/>
<rect x="689" y="736" width="78.1851" height="19.1958" fill="#E57100" stroke="black"/>
<path d="M727.814 827.981V736H767.433C767.433 736 768.027 773.374 767.558 790.975C767.09 808.576 755.494 829.139 727.814 827.981Z" fill="#E57100" stroke="black"/>
<ellipse cx="21.0548" cy="639.624" rx="19.6563" ry="23.0384" fill="#E57100" stroke="black"/>
<rect x="1" y="570" width="78.1851" height="19.1958" fill="#E57100" stroke="black"/>
<path d="M39.8145 661.981V570H79.4332C79.4332 570 80.0274 607.374 79.5585 624.975C79.0895 642.576 67.4941 663.139 39.8145 661.981Z" fill="#E57100" stroke="black"/>
<ellipse cx="21.0548" cy="806.624" rx="19.6563" ry="23.0384" fill="#E57100" stroke="black"/>
<rect x="1" y="737" width="78.1851" height="19.1958" fill="#E57100" stroke="black"/>
<path d="M39.8145 828.981V737H79.4332C79.4332 737 80.0274 774.374 79.5585 791.975C79.0895 809.576 67.4941 830.139 39.8145 828.981Z" fill="#E57100" stroke="black"/>
<ellipse cx="158.055" cy="639.624" rx="19.6563" ry="23.0384" fill="#E57100" stroke="black"/>
<rect x="138" y="570" width="78.1851" height="19.1958" fill="#E57100" stroke="black"/>
<path d="M176.814 661.981V570H216.433C216.433 570 217.027 607.374 216.558 624.975C216.09 642.576 204.494 663.139 176.814 661.981Z" fill="#E57100" stroke="black"/>
<ellipse cx="159.055" cy="805.624" rx="19.6563" ry="23.0384" fill="#E57100" stroke="black"/>
<rect x="139" y="736" width="78.1851" height="19.1958" fill="#E57100" stroke="black"/>
<path d="M177.814 827.981V736H217.433C217.433 736 218.027 773.374 217.558 790.975C217.09 808.576 205.494 829.139 177.814 827.981Z" fill="#E57100" stroke="black"/>
<ellipse cx="296.055" cy="639.624" rx="19.6563" ry="23.0384" fill="#E57100" stroke="black"/>
<rect x="276" y="570" width="78.1851" height="19.1958" fill="#E57100" stroke="black"/>
<path d="M314.814 661.981V570H354.433C354.433 570 355.027 607.374 354.558 624.975C354.09 642.576 342.494 663.139 314.814 661.981Z" fill="#E57100" stroke="black"/>
<ellipse cx="296.055" cy="806.624" rx="19.6563" ry="23.0384" fill="#E57100" stroke="black"/>
<rect x="276" y="737" width="78.1851" height="19.1958" fill="#E57100" stroke="black"/>
<path d="M314.814 828.981V737H354.433C354.433 737 355.027 774.374 354.558 791.975C354.09 809.576 342.494 830.139 314.814 828.981Z" fill="#E57100" stroke="black"/>
<ellipse cx="433.055" cy="639.624" rx="19.6563" ry="23.0384" fill="#E57100" stroke="black"/>
<rect x="413" y="570" width="78.1851" height="19.1958" fill="#E57100" stroke="black"/>
<path d="M451.814 661.981V570H491.433C491.433 570 492.027 607.374 491.558 624.975C491.09 642.576 479.494 663.139 451.814 661.981Z" fill="#E57100" stroke="black"/>
<ellipse cx="434.055" cy="805.624" rx="19.6563" ry="23.0384" fill="#E57100" stroke="black"/>
<rect x="414" y="736" width="78.1851" height="19.1958" fill="#E57100" stroke="black"/>
<path d="M452.814 827.981V736H492.433C492.433 736 493.027 773.374 492.558 790.975C492.09 808.576 480.494 829.139 452.814 827.981Z" fill="#E57100" stroke="black"/>
<ellipse cx="571.055" cy="639.624" rx="19.6563" ry="23.0384" fill="#E57100" stroke="black"/>
<rect x="551" y="570" width="78.1851" height="19.1958" fill="#E57100" stroke="black"/>
<path d="M589.814 661.981V570H629.433C629.433 570 630.027 607.374 629.558 624.975C629.09 642.576 617.494 663.139 589.814 661.981Z" fill="#E57100" stroke="black"/>
<ellipse cx="571.055" cy="806.624" rx="19.6563" ry="23.0384" fill="#E57100" stroke="black"/>
<rect x="551" y="737" width="78.1851" height="19.1958" fill="#E57100" stroke="black"/>
<path d="M589.814 828.981V737H629.433C629.433 737 630.027 774.374 629.558 791.975C629.09 809.576 617.494 830.139 589.814 828.981Z" fill="#E57100" stroke="black"/>
<ellipse cx="708.055" cy="639.624" rx="19.6563" ry="23.0384" fill="#E57100" stroke="black"/>
<rect x="688" y="570" width="78.1851" height="19.1958" fill="#E57100" stroke="black"/>
<path d="M726.814 661.981V570H766.433C766.433 570 767.027 607.374 766.558 624.975C766.09 642.576 754.494 663.139 726.814 661.981Z" fill="#E57100" stroke="black"/>
<ellipse cx="709.055" cy="805.624" rx="19.6563" ry="23.0384" fill="#E57100" stroke="black"/>
<rect x="689" y="736" width="78.1851" height="19.1958" fill="#E57100" stroke="black"/>
<path d="M727.814 827.981V736H767.433C767.433 736 768.027 773.374 767.558 790.975C767.09 808.576 755.494 829.139 727.814 827.981Z" fill="#E57100" stroke="black"/>
<ellipse cx="20.0548" cy="306.624" rx="19.6563" ry="23.0384" fill="#E57100" stroke="black"/>
<rect y="237" width="78.1851" height="19.1958" fill="#E57100" stroke="black"/>
<path d="M38.8145 328.981V237H78.4332C78.4332 237 79.0274 274.374 78.5585 291.975C78.0895 309.576 66.4941 330.139 38.8145 328.981Z" fill="#E57100" stroke="black"/>
<ellipse cx="20.0548" cy="473.624" rx="19.6563" ry="23.0384" fill="#E57100" stroke="black"/>
<rect y="404" width="78.1851" height="19.1958" fill="#E57100" stroke="black"/>
<path d="M38.8145 495.981V404H78.4332C78.4332 404 79.0274 441.374 78.5585 458.975C78.0895 476.576 66.4941 497.139 38.8145 495.981Z" fill="#E57100" stroke="black"/>
<ellipse cx="157.055" cy="306.624" rx="19.6563" ry="23.0384" fill="#E57100" stroke="black"/>
<rect x="137" y="237" width="78.1851" height="19.1958" fill="#E57100" stroke="black"/>
<path d="M175.814 328.981V237H215.433C215.433 237 216.027 274.374 215.558 291.975C215.09 309.576 203.494 330.139 175.814 328.981Z" fill="#E57100" stroke="black"/>
<ellipse cx="158.055" cy="472.624" rx="19.6563" ry="23.0384" fill="#E57100" stroke="black"/>
<rect x="138" y="403" width="78.1851" height="19.1958" fill="#E57100" stroke="black"/>
<path d="M176.814 494.981V403H216.433C216.433 403 217.027 440.374 216.558 457.975C216.09 475.576 204.494 496.139 176.814 494.981Z" fill="#E57100" stroke="black"/>
<ellipse cx="295.055" cy="306.624" rx="19.6563" ry="23.0384" fill="#E57100" stroke="black"/>
<rect x="275" y="237" width="78.1851" height="19.1958" fill="#E57100" stroke="black"/>
<path d="M313.814 328.981V237H353.433C353.433 237 354.027 274.374 353.558 291.975C353.09 309.576 341.494 330.139 313.814 328.981Z" fill="#E57100" stroke="black"/>
<ellipse cx="295.055" cy="473.624" rx="19.6563" ry="23.0384" fill="#E57100" stroke="black"/>
<rect x="275" y="404" width="78.1851" height="19.1958" fill="#E57100" stroke="black"/>
<path d="M313.814 495.981V404H353.433C353.433 404 354.027 441.374 353.558 458.975C353.09 476.576 341.494 497.139 313.814 495.981Z" fill="#E57100" stroke="black"/>
<ellipse cx="432.055" cy="306.624" rx="19.6563" ry="23.0384" fill="#E57100" stroke="black"/>
<rect x="412" y="237" width="78.1851" height="19.1958" fill="#E57100" stroke="black"/>
<path d="M450.814 328.981V237H490.433C490.433 237 491.027 274.374 490.558 291.975C490.09 309.576 478.494 330.139 450.814 328.981Z" fill="#E57100" stroke="black"/>
<ellipse cx="433.055" cy="472.624" rx="19.6563" ry="23.0384" fill="#E57100" stroke="black"/>
<rect x="413" y="403" width="78.1851" height="19.1958" fill="#E57100" stroke="black"/>
<path d="M451.814 494.981V403H491.433C491.433 403 492.027 440.374 491.558 457.975C491.09 475.576 479.494 496.139 451.814 494.981Z" fill="#E57100" stroke="black"/>
<ellipse cx="570.055" cy="306.624" rx="19.6563" ry="23.0384" fill="#E57100" stroke="black"/>
<rect x="550" y="237" width="78.1851" height="19.1958" fill="#E57100" stroke="black"/>
<path d="M588.814 328.981V237H628.433C628.433 237 629.027 274.374 628.558 291.975C628.09 309.576 616.494 330.139 588.814 328.981Z" fill="#E57100" stroke="black"/>
<ellipse cx="570.055" cy="473.624" rx="19.6563" ry="23.0384" fill="#E57100" stroke="black"/>
<rect x="550" y="404" width="78.1851" height="19.1958" fill="#E57100" stroke="black"/>
<path d="M588.814 495.981V404H628.433C628.433 404 629.027 441.374 628.558 458.975C628.09 476.576 616.494 497.139 588.814 495.981Z" fill="#E57100" stroke="black"/>
<ellipse cx="707.055" cy="306.624" rx="19.6563" ry="23.0384" fill="#E57100" stroke="black"/>
<rect x="687" y="237" width="78.1851" height="19.1958" fill="#E57100" stroke="black"/>
<path d="M725.814 328.981V237H765.433C765.433 237 766.027 274.374 765.558 291.975C765.09 309.576 753.494 330.139 725.814 328.981Z" fill="#E57100" stroke="black"/>
<ellipse cx="708.055" cy="472.624" rx="19.6563" ry="23.0384" fill="#E57100" stroke="black"/>
<rect x="688" y="403" width="78.1851" height="19.1958" fill="#E57100" stroke="black"/>
<path d="M726.814 494.981V403H766.433C766.433 403 767.027 440.374 766.558 457.975C766.09 475.576 754.494 496.139 726.814 494.981Z" fill="#E57100" stroke="black"/>
<ellipse cx="848.055" cy="1306.62" rx="19.6563" ry="23.0384" fill="#E57100" stroke="black"/>
<rect x="828" y="1237" width="78.1851" height="19.1958" fill="#E57100" stroke="black"/>
<path d="M866.814 1328.98V1237H906.433C906.433 1237 907.027 1274.37 906.558 1291.98C906.09 1309.58 894.494 1330.14 866.814 1328.98Z" fill="#E57100" stroke="black"/>
<ellipse cx="848.055" cy="1473.62" rx="19.6563" ry="23.0384" fill="#E57100" stroke="black"/>
<rect x="828" y="1404" width="78.1851" height="19.1958" fill="#E57100" stroke="black"/>
<path d="M866.814 1495.98V1404H906.433C906.433 1404 907.027 1441.37 906.558 1458.98C906.09 1476.58 894.494 1497.14 866.814 1495.98Z" fill="#E57100" stroke="black"/>
<ellipse cx="985.055" cy="1306.62" rx="19.6563" ry="23.0384" fill="#E57100" stroke="black"/>
<rect x="965" y="1237" width="78.1851" height="19.1958" fill="#E57100" stroke="black"/>
<path d="M1003.81 1328.98V1237H1043.43C1043.43 1237 1044.03 1274.37 1043.56 1291.98C1043.09 1309.58 1031.49 1330.14 1003.81 1328.98Z" fill="#E57100" stroke="black"/>
<ellipse cx="986.055" cy="1472.62" rx="19.6563" ry="23.0384" fill="#E57100" stroke="black"/>
<rect x="966" y="1403" width="78.1851" height="19.1958" fill="#E57100" stroke="black"/>
<path d="M1004.81 1494.98V1403H1044.43C1044.43 1403 1045.03 1440.37 1044.56 1457.98C1044.09 1475.58 1032.49 1496.14 1004.81 1494.98Z" fill="#E57100" stroke="black"/>
<ellipse cx="1123.05" cy="1306.62" rx="19.6563" ry="23.0384" fill="#E57100" stroke="black"/>
<rect x="1103" y="1237" width="78.1851" height="19.1958" fill="#E57100" stroke="black"/>
<path d="M1141.81 1328.98V1237H1181.43C1181.43 1237 1182.03 1274.37 1181.56 1291.98C1181.09 1309.58 1169.49 1330.14 1141.81 1328.98Z" fill="#E57100" stroke="black"/>
<ellipse cx="1123.05" cy="1473.62" rx="19.6563" ry="23.0384" fill="#E57100" stroke="black"/>
<rect x="1103" y="1404" width="78.1851" height="19.1958" fill="#E57100" stroke="black"/>
<path d="M1141.81 1495.98V1404H1181.43C1181.43 1404 1182.03 1441.37 1181.56 1458.98C1181.09 1476.58 1169.49 1497.14 1141.81 1495.98Z" fill="#E57100" stroke="black"/>
<ellipse cx="1260.05" cy="1306.62" rx="19.6563" ry="23.0384" fill="#E57100" stroke="black"/>
<rect x="1240" y="1237" width="78.1851" height="19.1958" fill="#E57100" stroke="black"/>
<path d="M1278.81 1328.98V1237H1318.43C1318.43 1237 1319.03 1274.37 1318.56 1291.98C1318.09 1309.58 1306.49 1330.14 1278.81 1328.98Z" fill="#E57100" stroke="black"/>
<ellipse cx="1261.05" cy="1472.62" rx="19.6563" ry="23.0384" fill="#E57100" stroke="black"/>
<rect x="1241" y="1403" width="78.1851" height="19.1958" fill="#E57100" stroke="black"/>
<path d="M1279.81 1494.98V1403H1319.43C1319.43 1403 1320.03 1440.37 1319.56 1457.98C1319.09 1475.58 1307.49 1496.14 1279.81 1494.98Z" fill="#E57100" stroke="black"/>
<ellipse cx="1398.05" cy="1306.62" rx="19.6563" ry="23.0384" fill="#E57100" stroke="black"/>
<rect x="1378" y="1237" width="78.1851" height="19.1958" fill="#E57100" stroke="black"/>
<path d="M1416.81 1328.98V1237H1456.43C1456.43 1237 1457.03 1274.37 1456.56 1291.98C1456.09 1309.58 1444.49 1330.14 1416.81 1328.98Z" fill="#E57100" stroke="black"/>
<ellipse cx="1398.05" cy="1473.62" rx="19.6563" ry="23.0384" fill="#E57100" stroke="black"/>
<rect x="1378" y="1404" width="78.1851" height="19.1958" fill="#E57100" stroke="black"/>
<path d="M1416.81 1495.98V1404H1456.43C1456.43 1404 1457.03 1441.37 1456.56 1458.98C1456.09 1476.58 1444.49 1497.14 1416.81 1495.98Z" fill="#E57100" stroke="black"/>
<ellipse cx="1535.05" cy="1306.62" rx="19.6563" ry="23.0384" fill="#E57100" stroke="black"/>
<rect x="1515" y="1237" width="78.1851" height="19.1958" fill="#E57100" stroke="black"/>
<path d="M1553.81 1328.98V1237H1593.43C1593.43 1237 1594.03 1274.37 1593.56 1291.98C1593.09 1309.58 1581.49 1330.14 1553.81 1328.98Z" fill="#E57100" stroke="black"/>
<ellipse cx="1536.05" cy="1472.62" rx="19.6563" ry="23.0384" fill="#E57100" stroke="black"/>
<rect x="1516" y="1403" width="78.1851" height="19.1958" fill="#E57100" stroke="black"/>
<path d="M1554.81 1494.98V1403H1594.43C1594.43 1403 1595.03 1440.37 1594.56 1457.98C1594.09 1475.58 1582.49 1496.14 1554.81 1494.98Z" fill="#E57100" stroke="black"/>
<ellipse cx="848.055" cy="1306.62" rx="19.6563" ry="23.0384" fill="#E57100" stroke="black"/>
<rect x="828" y="1237" width="78.1851" height="19.1958" fill="#E57100" stroke="black"/>
<path d="M866.814 1328.98V1237H906.433C906.433 1237 907.027 1274.37 906.558 1291.98C906.09 1309.58 894.494 1330.14 866.814 1328.98Z" fill="#E57100" stroke="black"/>
<ellipse cx="848.055" cy="1473.62" rx="19.6563" ry="23.0384" fill="#E57100" stroke="black"/>
<rect x="828" y="1404" width="78.1851" height="19.1958" fill="#E57100" stroke="black"/>
<path d="M866.814 1495.98V1404H906.433C906.433 1404 907.027 1441.37 906.558 1458.98C906.09 1476.58 894.494 1497.14 866.814 1495.98Z" fill="#E57100" stroke="black"/>
<ellipse cx="985.055" cy="1306.62" rx="19.6563" ry="23.0384" fill="#E57100" stroke="black"/>
<rect x="965" y="1237" width="78.1851" height="19.1958" fill="#E57100" stroke="black"/>
<path d="M1003.81 1328.98V1237H1043.43C1043.43 1237 1044.03 1274.37 1043.56 1291.98C1043.09 1309.58 1031.49 1330.14 1003.81 1328.98Z" fill="#E57100" stroke="black"/>
<ellipse cx="986.055" cy="1472.62" rx="19.6563" ry="23.0384" fill="#E57100" stroke="black"/>
<rect x="966" y="1403" width="78.1851" height="19.1958" fill="#E57100" stroke="black"/>
<path d="M1004.81 1494.98V1403H1044.43C1044.43 1403 1045.03 1440.37 1044.56 1457.98C1044.09 1475.58 1032.49 1496.14 1004.81 1494.98Z" fill="#E57100" stroke="black"/>
<ellipse cx="1123.05" cy="1306.62" rx="19.6563" ry="23.0384" fill="#E57100" stroke="black"/>
<rect x="1103" y="1237" width="78.1851" height="19.1958" fill="#E57100" stroke="black"/>
<path d="M1141.81 1328.98V1237H1181.43C1181.43 1237 1182.03 1274.37 1181.56 1291.98C1181.09 1309.58 1169.49 1330.14 1141.81 1328.98Z" fill="#E57100" stroke="black"/>
<ellipse cx="1123.05" cy="1473.62" rx="19.6563" ry="23.0384" fill="#E57100" stroke="black"/>
<rect x="1103" y="1404" width="78.1851" height="19.1958" fill="#E57100" stroke="black"/>
<path d="M1141.81 1495.98V1404H1181.43C1181.43 1404 1182.03 1441.37 1181.56 1458.98C1181.09 1476.58 1169.49 1497.14 1141.81 1495.98Z" fill="#E57100" stroke="black"/>
<ellipse cx="1260.05" cy="1306.62" rx="19.6563" ry="23.0384" fill="#E57100" stroke="black"/>
<rect x="1240" y="1237" width="78.1851" height="19.1958" fill="#E57100" stroke="black"/>
<path d="M1278.81 1328.98V1237H1318.43C1318.43 1237 1319.03 1274.37 1318.56 1291.98C1318.09 1309.58 1306.49 1330.14 1278.81 1328.98Z" fill="#E57100" stroke="black"/>
<ellipse cx="1261.05" cy="1472.62" rx="19.6563" ry="23.0384" fill="#E57100" stroke="black"/>
<rect x="1241" y="1403" width="78.1851" height="19.1958" fill="#E57100" stroke="black"/>
<path d="M1279.81 1494.98V1403H1319.43C1319.43 1403 1320.03 1440.37 1319.56 1457.98C1319.09 1475.58 1307.49 1496.14 1279.81 1494.98Z" fill="#E57100" stroke="black"/>
<ellipse cx="1398.05" cy="1306.62" rx="19.6563" ry="23.0384" fill="#E57100" stroke="black"/>
<rect x="1378" y="1237" width="78.1851" height="19.1958" fill="#E57100" stroke="black"/>
<path d="M1416.81 1328.98V1237H1456.43C1456.43 1237 1457.03 1274.37 1456.56 1291.98C1456.09 1309.58 1444.49 1330.14 1416.81 1328.98Z" fill="#E57100" stroke="black"/>
<ellipse cx="1398.05" cy="1473.62" rx="19.6563" ry="23.0384" fill="#E57100" stroke="black"/>
<rect x="1378" y="1404" width="78.1851" height="19.1958" fill="#E57100" stroke="black"/>
<path d="M1416.81 1495.98V1404H1456.43C1456.43 1404 1457.03 1441.37 1456.56 1458.98C1456.09 1476.58 1444.49 1497.14 1416.81 1495.98Z" fill="#E57100" stroke="black"/>
<ellipse cx="1535.05" cy="1306.62" rx="19.6563" ry="23.0384" fill="#E57100" stroke="black"/>
<rect x="1515" y="1237" width="78.1851" height="19.1958" fill="#E57100" stroke="black"/>
<path d="M1553.81 1328.98V1237H1593.43C1593.43 1237 1594.03 1274.37 1593.56 1291.98C1593.09 1309.58 1581.49 1330.14 1553.81 1328.98Z" fill="#E57100" stroke="black"/>
<ellipse cx="1536.05" cy="1472.62" rx="19.6563" ry="23.0384" fill="#E57100" stroke="black"/>
<rect x="1516" y="1403" width="78.1851" height="19.1958" fill="#E57100" stroke="black"/>
<path d="M1554.81 1494.98V1403H1594.43C1594.43 1403 1595.03 1440.37 1594.56 1457.98C1594.09 1475.58 1582.49 1496.14 1554.81 1494.98Z" fill="#E57100" stroke="black"/>
<ellipse cx="847.055" cy="973.624" rx="19.6563" ry="23.0384" fill="#E57100" stroke="black"/>
<rect x="827" y="904" width="78.1851" height="19.1958" fill="#E57100" stroke="black"/>
<path d="M865.814 995.981V904H905.433C905.433 904 906.027 941.374 905.558 958.975C905.09 976.576 893.494 997.139 865.814 995.981Z" fill="#E57100" stroke="black"/>
<ellipse cx="847.055" cy="1140.62" rx="19.6563" ry="23.0384" fill="#E57100" stroke="black"/>
<rect x="827" y="1071" width="78.1851" height="19.1958" fill="#E57100" stroke="black"/>
<path d="M865.814 1162.98V1071H905.433C905.433 1071 906.027 1108.37 905.558 1125.98C905.09 1143.58 893.494 1164.14 865.814 1162.98Z" fill="#E57100" stroke="black"/>
<ellipse cx="984.055" cy="973.624" rx="19.6563" ry="23.0384" fill="#E57100" stroke="black"/>
<rect x="964" y="904" width="78.1851" height="19.1958" fill="#E57100" stroke="black"/>
<path d="M1002.81 995.981V904H1042.43C1042.43 904 1043.03 941.374 1042.56 958.975C1042.09 976.576 1030.49 997.139 1002.81 995.981Z" fill="#E57100" stroke="black"/>
<ellipse cx="985.055" cy="1139.62" rx="19.6563" ry="23.0384" fill="#E57100" stroke="black"/>
<rect x="965" y="1070" width="78.1851" height="19.1958" fill="#E57100" stroke="black"/>
<path d="M1003.81 1161.98V1070H1043.43C1043.43 1070 1044.03 1107.37 1043.56 1124.98C1043.09 1142.58 1031.49 1163.14 1003.81 1161.98Z" fill="#E57100" stroke="black"/>
<ellipse cx="1122.05" cy="973.624" rx="19.6563" ry="23.0384" fill="#E57100" stroke="black"/>
<rect x="1102" y="904" width="78.1851" height="19.1958" fill="#E57100" stroke="black"/>
<path d="M1140.81 995.981V904H1180.43C1180.43 904 1181.03 941.374 1180.56 958.975C1180.09 976.576 1168.49 997.139 1140.81 995.981Z" fill="#E57100" stroke="black"/>
<ellipse cx="1122.05" cy="1140.62" rx="19.6563" ry="23.0384" fill="#E57100" stroke="black"/>
<rect x="1102" y="1071" width="78.1851" height="19.1958" fill="#E57100" stroke="black"/>
<path d="M1140.81 1162.98V1071H1180.43C1180.43 1071 1181.03 1108.37 1180.56 1125.98C1180.09 1143.58 1168.49 1164.14 1140.81 1162.98Z" fill="#E57100" stroke="black"/>
<ellipse cx="1259.05" cy="973.624" rx="19.6563" ry="23.0384" fill="#E57100" stroke="black"/>
<rect x="1239" y="904" width="78.1851" height="19.1958" fill="#E57100" stroke="black"/>
<path d="M1277.81 995.981V904H1317.43C1317.43 904 1318.03 941.374 1317.56 958.975C1317.09 976.576 1305.49 997.139 1277.81 995.981Z" fill="#E57100" stroke="black"/>
<ellipse cx="1260.05" cy="1139.62" rx="19.6563" ry="23.0384" fill="#E57100" stroke="black"/>
<rect x="1240" y="1070" width="78.1851" height="19.1958" fill="#E57100" stroke="black"/>
<path d="M1278.81 1161.98V1070H1318.43C1318.43 1070 1319.03 1107.37 1318.56 1124.98C1318.09 1142.58 1306.49 1163.14 1278.81 1161.98Z" fill="#E57100" stroke="black"/>
<ellipse cx="1397.05" cy="973.624" rx="19.6563" ry="23.0384" fill="#E57100" stroke="black"/>
<rect x="1377" y="904" width="78.1851" height="19.1958" fill="#E57100" stroke="black"/>
<path d="M1415.81 995.981V904H1455.43C1455.43 904 1456.03 941.374 1455.56 958.975C1455.09 976.576 1443.49 997.139 1415.81 995.981Z" fill="#E57100" stroke="black"/>
<ellipse cx="1397.05" cy="1140.62" rx="19.6563" ry="23.0384" fill="#E57100" stroke="black"/>
<rect x="1377" y="1071" width="78.1851" height="19.1958" fill="#E57100" stroke="black"/>
<path d="M1415.81 1162.98V1071H1455.43C1455.43 1071 1456.03 1108.37 1455.56 1125.98C1455.09 1143.58 1443.49 1164.14 1415.81 1162.98Z" fill="#E57100" stroke="black"/>
<ellipse cx="1534.05" cy="973.624" rx="19.6563" ry="23.0384" fill="#E57100" stroke="black"/>
<rect x="1514" y="904" width="78.1851" height="19.1958" fill="#E57100" stroke="black"/>
<path d="M1552.81 995.981V904H1592.43C1592.43 904 1593.03 941.374 1592.56 958.975C1592.09 976.576 1580.49 997.139 1552.81 995.981Z" fill="#E57100" stroke="black"/>
<ellipse cx="1535.05" cy="1139.62" rx="19.6563" ry="23.0384" fill="#E57100" stroke="black"/>
<rect x="1515" y="1070" width="78.1851" height="19.1958" fill="#E57100" stroke="black"/>
<path d="M1553.81 1161.98V1070H1593.43C1593.43 1070 1594.03 1107.37 1593.56 1124.98C1593.09 1142.58 1581.49 1163.14 1553.81 1161.98Z" fill="#E57100" stroke="black"/>
<ellipse cx="847.055" cy="640.624" rx="19.6563" ry="23.0384" fill="#E57100" stroke="black"/>
<rect x="827" y="571" width="78.1851" height="19.1958" fill="#E57100" stroke="black"/>
<path d="M865.814 662.981V571H905.433C905.433 571 906.027 608.374 905.558 625.975C905.09 643.576 893.494 664.139 865.814 662.981Z" fill="#E57100" stroke="black"/>
<ellipse cx="847.055" cy="807.624" rx="19.6563" ry="23.0384" fill="#E57100" stroke="black"/>
<rect x="827" y="738" width="78.1851" height="19.1958" fill="#E57100" stroke="black"/>
<path d="M865.814 829.981V738H905.433C905.433 738 906.027 775.374 905.558 792.975C905.09 810.576 893.494 831.139 865.814 829.981Z" fill="#E57100" stroke="black"/>
<ellipse cx="984.055" cy="640.624" rx="19.6563" ry="23.0384" fill="#E57100" stroke="black"/>
<rect x="964" y="571" width="78.1851" height="19.1958" fill="#E57100" stroke="black"/>
<path d="M1002.81 662.981V571H1042.43C1042.43 571 1043.03 608.374 1042.56 625.975C1042.09 643.576 1030.49 664.139 1002.81 662.981Z" fill="#E57100" stroke="black"/>
<ellipse cx="985.055" cy="806.624" rx="19.6563" ry="23.0384" fill="#E57100" stroke="black"/>
<rect x="965" y="737" width="78.1851" height="19.1958" fill="#E57100" stroke="black"/>
<path d="M1003.81 828.981V737H1043.43C1043.43 737 1044.03 774.374 1043.56 791.975C1043.09 809.576 1031.49 830.139 1003.81 828.981Z" fill="#E57100" stroke="black"/>
<ellipse cx="1122.05" cy="640.624" rx="19.6563" ry="23.0384" fill="#E57100" stroke="black"/>
<rect x="1102" y="571" width="78.1851" height="19.1958" fill="#E57100" stroke="black"/>
<path d="M1140.81 662.981V571H1180.43C1180.43 571 1181.03 608.374 1180.56 625.975C1180.09 643.576 1168.49 664.139 1140.81 662.981Z" fill="#E57100" stroke="black"/>
<ellipse cx="1122.05" cy="807.624" rx="19.6563" ry="23.0384" fill="#E57100" stroke="black"/>
<rect x="1102" y="738" width="78.1851" height="19.1958" fill="#E57100" stroke="black"/>
<path d="M1140.81 829.981V738H1180.43C1180.43 738 1181.03 775.374 1180.56 792.975C1180.09 810.576 1168.49 831.139 1140.81 829.981Z" fill="#E57100" stroke="black"/>
<ellipse cx="1259.05" cy="640.624" rx="19.6563" ry="23.0384" fill="#E57100" stroke="black"/>
<rect x="1239" y="571" width="78.1851" height="19.1958" fill="#E57100" stroke="black"/>
<path d="M1277.81 662.981V571H1317.43C1317.43 571 1318.03 608.374 1317.56 625.975C1317.09 643.576 1305.49 664.139 1277.81 662.981Z" fill="#E57100" stroke="black"/>
<ellipse cx="1260.05" cy="806.624" rx="19.6563" ry="23.0384" fill="#E57100" stroke="black"/>
<rect x="1240" y="737" width="78.1851" height="19.1958" fill="#E57100" stroke="black"/>
<path d="M1278.81 828.981V737H1318.43C1318.43 737 1319.03 774.374 1318.56 791.975C1318.09 809.576 1306.49 830.139 1278.81 828.981Z" fill="#E57100" stroke="black"/>
<ellipse cx="1397.05" cy="640.624" rx="19.6563" ry="23.0384" fill="#E57100" stroke="black"/>
<rect x="1377" y="571" width="78.1851" height="19.1958" fill="#E57100" stroke="black"/>
<path d="M1415.81 662.981V571H1455.43C1455.43 571 1456.03 608.374 1455.56 625.975C1455.09 643.576 1443.49 664.139 1415.81 662.981Z" fill="#E57100" stroke="black"/>
<ellipse cx="1397.05" cy="807.624" rx="19.6563" ry="23.0384" fill="#E57100" stroke="black"/>
<rect x="1377" y="738" width="78.1851" height="19.1958" fill="#E57100" stroke="black"/>
<path d="M1415.81 829.981V738H1455.43C1455.43 738 1456.03 775.374 1455.56 792.975C1455.09 810.576 1443.49 831.139 1415.81 829.981Z" fill="#E57100" stroke="black"/>
<ellipse cx="1534.05" cy="640.624" rx="19.6563" ry="23.0384" fill="#E57100" stroke="black"/>
<rect x="1514" y="571" width="78.1851" height="19.1958" fill="#E57100" stroke="black"/>
<path d="M1552.81 662.981V571H1592.43C1592.43 571 1593.03 608.374 1592.56 625.975C1592.09 643.576 1580.49 664.139 1552.81 662.981Z" fill="#E57100" stroke="black"/>
<ellipse cx="1535.05" cy="806.624" rx="19.6563" ry="23.0384" fill="#E57100" stroke="black"/>
<rect x="1515" y="737" width="78.1851" height="19.1958" fill="#E57100" stroke="black"/>
<path d="M1553.81 828.981V737H1593.43C1593.43 737 1594.03 774.374 1593.56 791.975C1593.09 809.576 1581.49 830.139 1553.81 828.981Z" fill="#E57100" stroke="black"/>
<ellipse cx="847.055" cy="640.624" rx="19.6563" ry="23.0384" fill="#E57100" stroke="black"/>
<rect x="827" y="571" width="78.1851" height="19.1958" fill="#E57100" stroke="black"/>
<path d="M865.814 662.981V571H905.433C905.433 571 906.027 608.374 905.558 625.975C905.09 643.576 893.494 664.139 865.814 662.981Z" fill="#E57100" stroke="black"/>
<ellipse cx="847.055" cy="807.624" rx="19.6563" ry="23.0384" fill="#E57100" stroke="black"/>
<rect x="827" y="738" width="78.1851" height="19.1958" fill="#E57100" stroke="black"/>
<path d="M865.814 829.981V738H905.433C905.433 738 906.027 775.374 905.558 792.975C905.09 810.576 893.494 831.139 865.814 829.981Z" fill="#E57100" stroke="black"/>
<ellipse cx="984.055" cy="640.624" rx="19.6563" ry="23.0384" fill="#E57100" stroke="black"/>
<rect x="964" y="571" width="78.1851" height="19.1958" fill="#E57100" stroke="black"/>
<path d="M1002.81 662.981V571H1042.43C1042.43 571 1043.03 608.374 1042.56 625.975C1042.09 643.576 1030.49 664.139 1002.81 662.981Z" fill="#E57100" stroke="black"/>
<ellipse cx="985.055" cy="806.624" rx="19.6563" ry="23.0384" fill="#E57100" stroke="black"/>
<rect x="965" y="737" width="78.1851" height="19.1958" fill="#E57100" stroke="black"/>
<path d="M1003.81 828.981V737H1043.43C1043.43 737 1044.03 774.374 1043.56 791.975C1043.09 809.576 1031.49 830.139 1003.81 828.981Z" fill="#E57100" stroke="black"/>
<ellipse cx="1122.05" cy="640.624" rx="19.6563" ry="23.0384" fill="#E57100" stroke="black"/>
<rect x="1102" y="571" width="78.1851" height="19.1958" fill="#E57100" stroke="black"/>
<path d="M1140.81 662.981V571H1180.43C1180.43 571 1181.03 608.374 1180.56 625.975C1180.09 643.576 1168.49 664.139 1140.81 662.981Z" fill="#E57100" stroke="black"/>
<ellipse cx="1122.05" cy="807.624" rx="19.6563" ry="23.0384" fill="#E57100" stroke="black"/>
<rect x="1102" y="738" width="78.1851" height="19.1958" fill="#E57100" stroke="black"/>
<path d="M1140.81 829.981V738H1180.43C1180.43 738 1181.03 775.374 1180.56 792.975C1180.09 810.576 1168.49 831.139 1140.81 829.981Z" fill="#E57100" stroke="black"/>
<ellipse cx="1259.05" cy="640.624" rx="19.6563" ry="23.0384" fill="#E57100" stroke="black"/>
<rect x="1239" y="571" width="78.1851" height="19.1958" fill="#E57100" stroke="black"/>
<path d="M1277.81 662.981V571H1317.43C1317.43 571 1318.03 608.374 1317.56 625.975C1317.09 643.576 1305.49 664.139 1277.81 662.981Z" fill="#E57100" stroke="black"/>
<ellipse cx="1260.05" cy="806.624" rx="19.6563" ry="23.0384" fill="#E57100" stroke="black"/>
<rect x="1240" y="737" width="78.1851" height="19.1958" fill="#E57100" stroke="black"/>
<path d="M1278.81 828.981V737H1318.43C1318.43 737 1319.03 774.374 1318.56 791.975C1318.09 809.576 1306.49 830.139 1278.81 828.981Z" fill="#E57100" stroke="black"/>
<ellipse cx="1397.05" cy="640.624" rx="19.6563" ry="23.0384" fill="#E57100" stroke="black"/>
<rect x="1377" y="571" width="78.1851" height="19.1958" fill="#E57100" stroke="black"/>
<path d="M1415.81 662.981V571H1455.43C1455.43 571 1456.03 608.374 1455.56 625.975C1455.09 643.576 1443.49 664.139 1415.81 662.981Z" fill="#E57100" stroke="black"/>
<ellipse cx="1397.05" cy="807.624" rx="19.6563" ry="23.0384" fill="#E57100" stroke="black"/>
<rect x="1377" y="738" width="78.1851" height="19.1958" fill="#E57100" stroke="black"/>
<path d="M1415.81 829.981V738H1455.43C1455.43 738 1456.03 775.374 1455.56 792.975C1455.09 810.576 1443.49 831.139 1415.81 829.981Z" fill="#E57100" stroke="black"/>
<ellipse cx="1534.05" cy="640.624" rx="19.6563" ry="23.0384" fill="#E57100" stroke="black"/>
<rect x="1514" y="571" width="78.1851" height="19.1958" fill="#E57100" stroke="black"/>
<path d="M1552.81 662.981V571H1592.43C1592.43 571 1593.03 608.374 1592.56 625.975C1592.09 643.576 1580.49 664.139 1552.81 662.981Z" fill="#E57100" stroke="black"/>
<ellipse cx="1535.05" cy="806.624" rx="19.6563" ry="23.0384" fill="#E57100" stroke="black"/>
<rect x="1515" y="737" width="78.1851" height="19.1958" fill="#E57100" stroke="black"/>
<path d="M1553.81 828.981V737H1593.43C1593.43 737 1594.03 774.374 1593.56 791.975C1593.09 809.576 1581.49 830.139 1553.81 828.981Z" fill="#E57100" stroke="black"/>
<ellipse cx="846.055" cy="307.624" rx="19.6563" ry="23.0384" fill="#E57100" stroke="black"/>
<rect x="826" y="238" width="78.1851" height="19.1958" fill="#E57100" stroke="black"/>
<path d="M864.814 329.981V238H904.433C904.433 238 905.027 275.374 904.558 292.975C904.09 310.576 892.494 331.139 864.814 329.981Z" fill="#E57100" stroke="black"/>
<ellipse cx="846.055" cy="474.624" rx="19.6563" ry="23.0384" fill="#E57100" stroke="black"/>
<rect x="826" y="405" width="78.1851" height="19.1958" fill="#E57100" stroke="black"/>
<path d="M864.814 496.981V405H904.433C904.433 405 905.027 442.374 904.558 459.975C904.09 477.576 892.494 498.139 864.814 496.981Z" fill="#E57100" stroke="black"/>
<ellipse cx="983.055" cy="307.624" rx="19.6563" ry="23.0384" fill="#E57100" stroke="black"/>
<rect x="963" y="238" width="78.1851" height="19.1958" fill="#E57100" stroke="black"/>
<path d="M1001.81 329.981V238H1041.43C1041.43 238 1042.03 275.374 1041.56 292.975C1041.09 310.576 1029.49 331.139 1001.81 329.981Z" fill="#E57100" stroke="black"/>
<ellipse cx="984.055" cy="473.624" rx="19.6563" ry="23.0384" fill="#E57100" stroke="black"/>
<rect x="964" y="404" width="78.1851" height="19.1958" fill="#E57100" stroke="black"/>
<path d="M1002.81 495.981V404H1042.43C1042.43 404 1043.03 441.374 1042.56 458.975C1042.09 476.576 1030.49 497.139 1002.81 495.981Z" fill="#E57100" stroke="black"/>
<ellipse cx="1121.05" cy="307.624" rx="19.6563" ry="23.0384" fill="#E57100" stroke="black"/>
<rect x="1101" y="238" width="78.1851" height="19.1958" fill="#E57100" stroke="black"/>
<path d="M1139.81 329.981V238H1179.43C1179.43 238 1180.03 275.374 1179.56 292.975C1179.09 310.576 1167.49 331.139 1139.81 329.981Z" fill="#E57100" stroke="black"/>
<ellipse cx="1121.05" cy="474.624" rx="19.6563" ry="23.0384" fill="#E57100" stroke="black"/>
<rect x="1101" y="405" width="78.1851" height="19.1958" fill="#E57100" stroke="black"/>
<path d="M1139.81 496.981V405H1179.43C1179.43 405 1180.03 442.374 1179.56 459.975C1179.09 477.576 1167.49 498.139 1139.81 496.981Z" fill="#E57100" stroke="black"/>
<ellipse cx="1258.05" cy="307.624" rx="19.6563" ry="23.0384" fill="#E57100" stroke="black"/>
<rect x="1238" y="238" width="78.1851" height="19.1958" fill="#E57100" stroke="black"/>
<path d="M1276.81 329.981V238H1316.43C1316.43 238 1317.03 275.374 1316.56 292.975C1316.09 310.576 1304.49 331.139 1276.81 329.981Z" fill="#E57100" stroke="black"/>
<ellipse cx="1259.05" cy="473.624" rx="19.6563" ry="23.0384" fill="#E57100" stroke="black"/>
<rect x="1239" y="404" width="78.1851" height="19.1958" fill="#E57100" stroke="black"/>
<path d="M1277.81 495.981V404H1317.43C1317.43 404 1318.03 441.374 1317.56 458.975C1317.09 476.576 1305.49 497.139 1277.81 495.981Z" fill="#E57100" stroke="black"/>
<ellipse cx="1396.05" cy="307.624" rx="19.6563" ry="23.0384" fill="#E57100" stroke="black"/>
<rect x="1376" y="238" width="78.1851" height="19.1958" fill="#E57100" stroke="black"/>
<path d="M1414.81 329.981V238H1454.43C1454.43 238 1455.03 275.374 1454.56 292.975C1454.09 310.576 1442.49 331.139 1414.81 329.981Z" fill="#E57100" stroke="black"/>
<ellipse cx="1396.05" cy="474.624" rx="19.6563" ry="23.0384" fill="#E57100" stroke="black"/>
<rect x="1376" y="405" width="78.1851" height="19.1958" fill="#E57100" stroke="black"/>
<path d="M1414.81 496.981V405H1454.43C1454.43 405 1455.03 442.374 1454.56 459.975C1454.09 477.576 1442.49 498.139 1414.81 496.981Z" fill="#E57100" stroke="black"/>
<ellipse cx="1533.05" cy="307.624" rx="19.6563" ry="23.0384" fill="#E57100" stroke="black"/>
<rect x="1513" y="238" width="78.1851" height="19.1958" fill="#E57100" stroke="black"/>
<path d="M1551.81 329.981V238H1591.43C1591.43 238 1592.03 275.374 1591.56 292.975C1591.09 310.576 1579.49 331.139 1551.81 329.981Z" fill="#E57100" stroke="black"/>
<ellipse cx="1534.05" cy="473.624" rx="19.6563" ry="23.0384" fill="#E57100" stroke="black"/>
<rect x="1514" y="404" width="78.1851" height="19.1958" fill="#E57100" stroke="black"/>
<path d="M1552.81 495.981V404H1592.43C1592.43 404 1593.03 441.374 1592.56 458.975C1592.09 476.576 1580.49 497.139 1552.81 495.981Z" fill="#E57100" stroke="black"/>
<ellipse cx="1673.05" cy="1306.62" rx="19.6563" ry="23.0384" fill="#E57100" stroke="black"/>
<rect x="1653" y="1237" width="78.1851" height="19.1958" fill="#E57100" stroke="black"/>
<path d="M1691.81 1328.98V1237H1731.43C1731.43 1237 1732.03 1274.37 1731.56 1291.98C1731.09 1309.58 1719.49 1330.14 1691.81 1328.98Z" fill="#E57100" stroke="black"/>
<ellipse cx="1673.05" cy="1473.62" rx="19.6563" ry="23.0384" fill="#E57100" stroke="black"/>
<rect x="1653" y="1404" width="78.1851" height="19.1958" fill="#E57100" stroke="black"/>
<path d="M1691.81 1495.98V1404H1731.43C1731.43 1404 1732.03 1441.37 1731.56 1458.98C1731.09 1476.58 1719.49 1497.14 1691.81 1495.98Z" fill="#E57100" stroke="black"/>
<ellipse cx="1810.05" cy="1306.62" rx="19.6563" ry="23.0384" fill="#E57100" stroke="black"/>
<rect x="1790" y="1237" width="78.1851" height="19.1958" fill="#E57100" stroke="black"/>
<path d="M1828.81 1328.98V1237H1868.43C1868.43 1237 1869.03 1274.37 1868.56 1291.98C1868.09 1309.58 1856.49 1330.14 1828.81 1328.98Z" fill="#E57100" stroke="black"/>
<ellipse cx="1811.05" cy="1472.62" rx="19.6563" ry="23.0384" fill="#E57100" stroke="black"/>
<rect x="1791" y="1403" width="78.1851" height="19.1958" fill="#E57100" stroke="black"/>
<path d="M1829.81 1494.98V1403H1869.43C1869.43 1403 1870.03 1440.37 1869.56 1457.98C1869.09 1475.58 1857.49 1496.14 1829.81 1494.98Z" fill="#E57100" stroke="black"/>
<ellipse cx="1948.05" cy="1306.62" rx="19.6563" ry="23.0384" fill="#E57100" stroke="black"/>
<rect x="1928" y="1237" width="78.1851" height="19.1958" fill="#E57100" stroke="black"/>
<path d="M1966.81 1328.98V1237H2006.43C2006.43 1237 2007.03 1274.37 2006.56 1291.98C2006.09 1309.58 1994.49 1330.14 1966.81 1328.98Z" fill="#E57100" stroke="black"/>
<ellipse cx="1948.05" cy="1473.62" rx="19.6563" ry="23.0384" fill="#E57100" stroke="black"/>
<rect x="1928" y="1404" width="78.1851" height="19.1958" fill="#E57100" stroke="black"/>
<path d="M1966.81 1495.98V1404H2006.43C2006.43 1404 2007.03 1441.37 2006.56 1458.98C2006.09 1476.58 1994.49 1497.14 1966.81 1495.98Z" fill="#E57100" stroke="black"/>
<ellipse cx="2085.05" cy="1306.62" rx="19.6563" ry="23.0384" fill="#E57100" stroke="black"/>
<rect x="2065" y="1237" width="78.1851" height="19.1958" fill="#E57100" stroke="black"/>
<path d="M2103.81 1328.98V1237H2143.43C2143.43 1237 2144.03 1274.37 2143.56 1291.98C2143.09 1309.58 2131.49 1330.14 2103.81 1328.98Z" fill="#E57100" stroke="black"/>
<ellipse cx="2086.05" cy="1472.62" rx="19.6563" ry="23.0384" fill="#E57100" stroke="black"/>
<rect x="2066" y="1403" width="78.1851" height="19.1958" fill="#E57100" stroke="black"/>
<path d="M2104.81 1494.98V1403H2144.43C2144.43 1403 2145.03 1440.37 2144.56 1457.98C2144.09 1475.58 2132.49 1496.14 2104.81 1494.98Z" fill="#E57100" stroke="black"/>
<ellipse cx="2223.05" cy="1306.62" rx="19.6563" ry="23.0384" fill="#E57100" stroke="black"/>
<rect x="2203" y="1237" width="78.1851" height="19.1958" fill="#E57100" stroke="black"/>
<path d="M2241.81 1328.98V1237H2281.43C2281.43 1237 2282.03 1274.37 2281.56 1291.98C2281.09 1309.58 2269.49 1330.14 2241.81 1328.98Z" fill="#E57100" stroke="black"/>
<ellipse cx="2223.05" cy="1473.62" rx="19.6563" ry="23.0384" fill="#E57100" stroke="black"/>
<rect x="2203" y="1404" width="78.1851" height="19.1958" fill="#E57100" stroke="black"/>
<path d="M2241.81 1495.98V1404H2281.43C2281.43 1404 2282.03 1441.37 2281.56 1458.98C2281.09 1476.58 2269.49 1497.14 2241.81 1495.98Z" fill="#E57100" stroke="black"/>
<ellipse cx="2360.05" cy="1306.62" rx="19.6563" ry="23.0384" fill="#E57100" stroke="black"/>
<rect x="2340" y="1237" width="78.1851" height="19.1958" fill="#E57100" stroke="black"/>
<path d="M2378.81 1328.98V1237H2418.43C2418.43 1237 2419.03 1274.37 2418.56 1291.98C2418.09 1309.58 2406.49 1330.14 2378.81 1328.98Z" fill="#E57100" stroke="black"/>
<ellipse cx="2361.05" cy="1472.62" rx="19.6563" ry="23.0384" fill="#E57100" stroke="black"/>
<rect x="2341" y="1403" width="78.1851" height="19.1958" fill="#E57100" stroke="black"/>
<path d="M2379.81 1494.98V1403H2419.43C2419.43 1403 2420.03 1440.37 2419.56 1457.98C2419.09 1475.58 2407.49 1496.14 2379.81 1494.98Z" fill="#E57100" stroke="black"/>
<ellipse cx="1673.05" cy="1306.62" rx="19.6563" ry="23.0384" fill="#E57100" stroke="black"/>
<rect x="1653" y="1237" width="78.1851" height="19.1958" fill="#E57100" stroke="black"/>
<path d="M1691.81 1328.98V1237H1731.43C1731.43 1237 1732.03 1274.37 1731.56 1291.98C1731.09 1309.58 1719.49 1330.14 1691.81 1328.98Z" fill="#E57100" stroke="black"/>
<ellipse cx="1673.05" cy="1473.62" rx="19.6563" ry="23.0384" fill="#E57100" stroke="black"/>
<rect x="1653" y="1404" width="78.1851" height="19.1958" fill="#E57100" stroke="black"/>
<path d="M1691.81 1495.98V1404H1731.43C1731.43 1404 1732.03 1441.37 1731.56 1458.98C1731.09 1476.58 1719.49 1497.14 1691.81 1495.98Z" fill="#E57100" stroke="black"/>
<ellipse cx="1810.05" cy="1306.62" rx="19.6563" ry="23.0384" fill="#E57100" stroke="black"/>
<rect x="1790" y="1237" width="78.1851" height="19.1958" fill="#E57100" stroke="black"/>
<path d="M1828.81 1328.98V1237H1868.43C1868.43 1237 1869.03 1274.37 1868.56 1291.98C1868.09 1309.58 1856.49 1330.14 1828.81 1328.98Z" fill="#E57100" stroke="black"/>
<ellipse cx="1811.05" cy="1472.62" rx="19.6563" ry="23.0384" fill="#E57100" stroke="black"/>
<rect x="1791" y="1403" width="78.1851" height="19.1958" fill="#E57100" stroke="black"/>
<path d="M1829.81 1494.98V1403H1869.43C1869.43 1403 1870.03 1440.37 1869.56 1457.98C1869.09 1475.58 1857.49 1496.14 1829.81 1494.98Z" fill="#E57100" stroke="black"/>
<ellipse cx="1948.05" cy="1306.62" rx="19.6563" ry="23.0384" fill="#E57100" stroke="black"/>
<rect x="1928" y="1237" width="78.1851" height="19.1958" fill="#E57100" stroke="black"/>
<path d="M1966.81 1328.98V1237H2006.43C2006.43 1237 2007.03 1274.37 2006.56 1291.98C2006.09 1309.58 1994.49 1330.14 1966.81 1328.98Z" fill="#E57100" stroke="black"/>
<ellipse cx="1948.05" cy="1473.62" rx="19.6563" ry="23.0384" fill="#E57100" stroke="black"/>
<rect x="1928" y="1404" width="78.1851" height="19.1958" fill="#E57100" stroke="black"/>
<path d="M1966.81 1495.98V1404H2006.43C2006.43 1404 2007.03 1441.37 2006.56 1458.98C2006.09 1476.58 1994.49 1497.14 1966.81 1495.98Z" fill="#E57100" stroke="black"/>
<ellipse cx="2085.05" cy="1306.62" rx="19.6563" ry="23.0384" fill="#E57100" stroke="black"/>
<rect x="2065" y="1237" width="78.1851" height="19.1958" fill="#E57100" stroke="black"/>
<path d="M2103.81 1328.98V1237H2143.43C2143.43 1237 2144.03 1274.37 2143.56 1291.98C2143.09 1309.58 2131.49 1330.14 2103.81 1328.98Z" fill="#E57100" stroke="black"/>
<ellipse cx="2086.05" cy="1472.62" rx="19.6563" ry="23.0384" fill="#E57100" stroke="black"/>
<rect x="2066" y="1403" width="78.1851" height="19.1958" fill="#E57100" stroke="black"/>
<path d="M2104.81 1494.98V1403H2144.43C2144.43 1403 2145.03 1440.37 2144.56 1457.98C2144.09 1475.58 2132.49 1496.14 2104.81 1494.98Z" fill="#E57100" stroke="black"/>
<ellipse cx="2223.05" cy="1306.62" rx="19.6563" ry="23.0384" fill="#E57100" stroke="black"/>
<rect x="2203" y="1237" width="78.1851" height="19.1958" fill="#E57100" stroke="black"/>
<path d="M2241.81 1328.98V1237H2281.43C2281.43 1237 2282.03 1274.37 2281.56 1291.98C2281.09 1309.58 2269.49 1330.14 2241.81 1328.98Z" fill="#E57100" stroke="black"/>
<ellipse cx="2223.05" cy="1473.62" rx="19.6563" ry="23.0384" fill="#E57100" stroke="black"/>
<rect x="2203" y="1404" width="78.1851" height="19.1958" fill="#E57100" stroke="black"/>
<path d="M2241.81 1495.98V1404H2281.43C2281.43 1404 2282.03 1441.37 2281.56 1458.98C2281.09 1476.58 2269.49 1497.14 2241.81 1495.98Z" fill="#E57100" stroke="black"/>
<ellipse cx="2360.05" cy="1306.62" rx="19.6563" ry="23.0384" fill="#E57100" stroke="black"/>
<rect x="2340" y="1237" width="78.1851" height="19.1958" fill="#E57100" stroke="black"/>
<path d="M2378.81 1328.98V1237H2418.43C2418.43 1237 2419.03 1274.37 2418.56 1291.98C2418.09 1309.58 2406.49 1330.14 2378.81 1328.98Z" fill="#E57100" stroke="black"/>
<ellipse cx="2361.05" cy="1472.62" rx="19.6563" ry="23.0384" fill="#E57100" stroke="black"/>
<rect x="2341" y="1403" width="78.1851" height="19.1958" fill="#E57100" stroke="black"/>
<path d="M2379.81 1494.98V1403H2419.43C2419.43 1403 2420.03 1440.37 2419.56 1457.98C2419.09 1475.58 2407.49 1496.14 2379.81 1494.98Z" fill="#E57100" stroke="black"/>
<ellipse cx="1672.05" cy="973.624" rx="19.6563" ry="23.0384" fill="#E57100" stroke="black"/>
<rect x="1652" y="904" width="78.1851" height="19.1958" fill="#E57100" stroke="black"/>
<path d="M1690.81 995.981V904H1730.43C1730.43 904 1731.03 941.374 1730.56 958.975C1730.09 976.576 1718.49 997.139 1690.81 995.981Z" fill="#E57100" stroke="black"/>
<ellipse cx="1672.05" cy="1140.62" rx="19.6563" ry="23.0384" fill="#E57100" stroke="black"/>
<rect x="1652" y="1071" width="78.1851" height="19.1958" fill="#E57100" stroke="black"/>
<path d="M1690.81 1162.98V1071H1730.43C1730.43 1071 1731.03 1108.37 1730.56 1125.98C1730.09 1143.58 1718.49 1164.14 1690.81 1162.98Z" fill="#E57100" stroke="black"/>
<ellipse cx="1809.05" cy="973.624" rx="19.6563" ry="23.0384" fill="#E57100" stroke="black"/>
<rect x="1789" y="904" width="78.1851" height="19.1958" fill="#E57100" stroke="black"/>
<path d="M1827.81 995.981V904H1867.43C1867.43 904 1868.03 941.374 1867.56 958.975C1867.09 976.576 1855.49 997.139 1827.81 995.981Z" fill="#E57100" stroke="black"/>
<ellipse cx="1810.05" cy="1139.62" rx="19.6563" ry="23.0384" fill="#E57100" stroke="black"/>
<rect x="1790" y="1070" width="78.1851" height="19.1958" fill="#E57100" stroke="black"/>
<path d="M1828.81 1161.98V1070H1868.43C1868.43 1070 1869.03 1107.37 1868.56 1124.98C1868.09 1142.58 1856.49 1163.14 1828.81 1161.98Z" fill="#E57100" stroke="black"/>
<ellipse cx="1947.05" cy="973.624" rx="19.6563" ry="23.0384" fill="#E57100" stroke="black"/>
<rect x="1927" y="904" width="78.1851" height="19.1958" fill="#E57100" stroke="black"/>
<path d="M1965.81 995.981V904H2005.43C2005.43 904 2006.03 941.374 2005.56 958.975C2005.09 976.576 1993.49 997.139 1965.81 995.981Z" fill="#E57100" stroke="black"/>
<ellipse cx="1947.05" cy="1140.62" rx="19.6563" ry="23.0384" fill="#E57100" stroke="black"/>
<rect x="1927" y="1071" width="78.1851" height="19.1958" fill="#E57100" stroke="black"/>
<path d="M1965.81 1162.98V1071H2005.43C2005.43 1071 2006.03 1108.37 2005.56 1125.98C2005.09 1143.58 1993.49 1164.14 1965.81 1162.98Z" fill="#E57100" stroke="black"/>
<ellipse cx="2084.05" cy="973.624" rx="19.6563" ry="23.0384" fill="#E57100" stroke="black"/>
<rect x="2064" y="904" width="78.1851" height="19.1958" fill="#E57100" stroke="black"/>
<path d="M2102.81 995.981V904H2142.43C2142.43 904 2143.03 941.374 2142.56 958.975C2142.09 976.576 2130.49 997.139 2102.81 995.981Z" fill="#E57100" stroke="black"/>
<ellipse cx="2085.05" cy="1139.62" rx="19.6563" ry="23.0384" fill="#E57100" stroke="black"/>
<rect x="2065" y="1070" width="78.1851" height="19.1958" fill="#E57100" stroke="black"/>
<path d="M2103.81 1161.98V1070H2143.43C2143.43 1070 2144.03 1107.37 2143.56 1124.98C2143.09 1142.58 2131.49 1163.14 2103.81 1161.98Z" fill="#E57100" stroke="black"/>
<ellipse cx="2222.05" cy="973.624" rx="19.6563" ry="23.0384" fill="#E57100" stroke="black"/>
<rect x="2202" y="904" width="78.1851" height="19.1958" fill="#E57100" stroke="black"/>
<path d="M2240.81 995.981V904H2280.43C2280.43 904 2281.03 941.374 2280.56 958.975C2280.09 976.576 2268.49 997.139 2240.81 995.981Z" fill="#E57100" stroke="black"/>
<ellipse cx="2222.05" cy="1140.62" rx="19.6563" ry="23.0384" fill="#E57100" stroke="black"/>
<rect x="2202" y="1071" width="78.1851" height="19.1958" fill="#E57100" stroke="black"/>
<path d="M2240.81 1162.98V1071H2280.43C2280.43 1071 2281.03 1108.37 2280.56 1125.98C2280.09 1143.58 2268.49 1164.14 2240.81 1162.98Z" fill="#E57100" stroke="black"/>
<ellipse cx="2359.05" cy="973.624" rx="19.6563" ry="23.0384" fill="#E57100" stroke="black"/>
<rect x="2339" y="904" width="78.1851" height="19.1958" fill="#E57100" stroke="black"/>
<path d="M2377.81 995.981V904H2417.43C2417.43 904 2418.03 941.374 2417.56 958.975C2417.09 976.576 2405.49 997.139 2377.81 995.981Z" fill="#E57100" stroke="black"/>
<ellipse cx="2360.05" cy="1139.62" rx="19.6563" ry="23.0384" fill="#E57100" stroke="black"/>
<rect x="2340" y="1070" width="78.1851" height="19.1958" fill="#E57100" stroke="black"/>
<path d="M2378.81 1161.98V1070H2418.43C2418.43 1070 2419.03 1107.37 2418.56 1124.98C2418.09 1142.58 2406.49 1163.14 2378.81 1161.98Z" fill="#E57100" stroke="black"/>
<ellipse cx="1672.05" cy="640.624" rx="19.6563" ry="23.0384" fill="#E57100" stroke="black"/>
<rect x="1652" y="571" width="78.1851" height="19.1958" fill="#E57100" stroke="black"/>
<path d="M1690.81 662.981V571H1730.43C1730.43 571 1731.03 608.374 1730.56 625.975C1730.09 643.576 1718.49 664.139 1690.81 662.981Z" fill="#E57100" stroke="black"/>
<ellipse cx="1672.05" cy="807.624" rx="19.6563" ry="23.0384" fill="#E57100" stroke="black"/>
<rect x="1652" y="738" width="78.1851" height="19.1958" fill="#E57100" stroke="black"/>
<path d="M1690.81 829.981V738H1730.43C1730.43 738 1731.03 775.374 1730.56 792.975C1730.09 810.576 1718.49 831.139 1690.81 829.981Z" fill="#E57100" stroke="black"/>
<ellipse cx="1809.05" cy="640.624" rx="19.6563" ry="23.0384" fill="#E57100" stroke="black"/>
<rect x="1789" y="571" width="78.1851" height="19.1958" fill="#E57100" stroke="black"/>
<path d="M1827.81 662.981V571H1867.43C1867.43 571 1868.03 608.374 1867.56 625.975C1867.09 643.576 1855.49 664.139 1827.81 662.981Z" fill="#E57100" stroke="black"/>
<ellipse cx="1810.05" cy="806.624" rx="19.6563" ry="23.0384" fill="#E57100" stroke="black"/>
<rect x="1790" y="737" width="78.1851" height="19.1958" fill="#E57100" stroke="black"/>
<path d="M1828.81 828.981V737H1868.43C1868.43 737 1869.03 774.374 1868.56 791.975C1868.09 809.576 1856.49 830.139 1828.81 828.981Z" fill="#E57100" stroke="black"/>
<ellipse cx="1947.05" cy="640.624" rx="19.6563" ry="23.0384" fill="#E57100" stroke="black"/>
<rect x="1927" y="571" width="78.1851" height="19.1958" fill="#E57100" stroke="black"/>
<path d="M1965.81 662.981V571H2005.43C2005.43 571 2006.03 608.374 2005.56 625.975C2005.09 643.576 1993.49 664.139 1965.81 662.981Z" fill="#E57100" stroke="black"/>
<ellipse cx="1947.05" cy="807.624" rx="19.6563" ry="23.0384" fill="#E57100" stroke="black"/>
<rect x="1927" y="738" width="78.1851" height="19.1958" fill="#E57100" stroke="black"/>
<path d="M1965.81 829.981V738H2005.43C2005.43 738 2006.03 775.374 2005.56 792.975C2005.09 810.576 1993.49 831.139 1965.81 829.981Z" fill="#E57100" stroke="black"/>
<ellipse cx="2084.05" cy="640.624" rx="19.6563" ry="23.0384" fill="#E57100" stroke="black"/>
<rect x="2064" y="571" width="78.1851" height="19.1958" fill="#E57100" stroke="black"/>
<path d="M2102.81 662.981V571H2142.43C2142.43 571 2143.03 608.374 2142.56 625.975C2142.09 643.576 2130.49 664.139 2102.81 662.981Z" fill="#E57100" stroke="black"/>
<ellipse cx="2085.05" cy="806.624" rx="19.6563" ry="23.0384" fill="#E57100" stroke="black"/>
<rect x="2065" y="737" width="78.1851" height="19.1958" fill="#E57100" stroke="black"/>
<path d="M2103.81 828.981V737H2143.43C2143.43 737 2144.03 774.374 2143.56 791.975C2143.09 809.576 2131.49 830.139 2103.81 828.981Z" fill="#E57100" stroke="black"/>
<ellipse cx="2222.05" cy="640.624" rx="19.6563" ry="23.0384" fill="#E57100" stroke="black"/>
<rect x="2202" y="571" width="78.1851" height="19.1958" fill="#E57100" stroke="black"/>
<path d="M2240.81 662.981V571H2280.43C2280.43 571 2281.03 608.374 2280.56 625.975C2280.09 643.576 2268.49 664.139 2240.81 662.981Z" fill="#E57100" stroke="black"/>
<ellipse cx="2222.05" cy="807.624" rx="19.6563" ry="23.0384" fill="#E57100" stroke="black"/>
<rect x="2202" y="738" width="78.1851" height="19.1958" fill="#E57100" stroke="black"/>
<path d="M2240.81 829.981V738H2280.43C2280.43 738 2281.03 775.374 2280.56 792.975C2280.09 810.576 2268.49 831.139 2240.81 829.981Z" fill="#E57100" stroke="black"/>
<ellipse cx="2359.05" cy="640.624" rx="19.6563" ry="23.0384" fill="#E57100" stroke="black"/>
<rect x="2339" y="571" width="78.1851" height="19.1958" fill="#E57100" stroke="black"/>
<path d="M2377.81 662.981V571H2417.43C2417.43 571 2418.03 608.374 2417.56 625.975C2417.09 643.576 2405.49 664.139 2377.81 662.981Z" fill="#E57100" stroke="black"/>
<ellipse cx="2360.05" cy="806.624" rx="19.6563" ry="23.0384" fill="#E57100" stroke="black"/>
<rect x="2340" y="737" width="78.1851" height="19.1958" fill="#E57100" stroke="black"/>
<path d="M2378.81 828.981V737H2418.43C2418.43 737 2419.03 774.374 2418.56 791.975C2418.09 809.576 2406.49 830.139 2378.81 828.981Z" fill="#E57100" stroke="black"/>
<ellipse cx="1672.05" cy="640.624" rx="19.6563" ry="23.0384" fill="#E57100" stroke="black"/>
<rect x="1652" y="571" width="78.1851" height="19.1958" fill="#E57100" stroke="black"/>
<path d="M1690.81 662.981V571H1730.43C1730.43 571 1731.03 608.374 1730.56 625.975C1730.09 643.576 1718.49 664.139 1690.81 662.981Z" fill="#E57100" stroke="black"/>
<ellipse cx="1672.05" cy="807.624" rx="19.6563" ry="23.0384" fill="#E57100" stroke="black"/>
<rect x="1652" y="738" width="78.1851" height="19.1958" fill="#E57100" stroke="black"/>
<path d="M1690.81 829.981V738H1730.43C1730.43 738 1731.03 775.374 1730.56 792.975C1730.09 810.576 1718.49 831.139 1690.81 829.981Z" fill="#E57100" stroke="black"/>
<ellipse cx="1809.05" cy="640.624" rx="19.6563" ry="23.0384" fill="#E57100" stroke="black"/>
<rect x="1789" y="571" width="78.1851" height="19.1958" fill="#E57100" stroke="black"/>
<path d="M1827.81 662.981V571H1867.43C1867.43 571 1868.03 608.374 1867.56 625.975C1867.09 643.576 1855.49 664.139 1827.81 662.981Z" fill="#E57100" stroke="black"/>
<ellipse cx="1810.05" cy="806.624" rx="19.6563" ry="23.0384" fill="#E57100" stroke="black"/>
<rect x="1790" y="737" width="78.1851" height="19.1958" fill="#E57100" stroke="black"/>
<path d="M1828.81 828.981V737H1868.43C1868.43 737 1869.03 774.374 1868.56 791.975C1868.09 809.576 1856.49 830.139 1828.81 828.981Z" fill="#E57100" stroke="black"/>
<ellipse cx="1947.05" cy="640.624" rx="19.6563" ry="23.0384" fill="#E57100" stroke="black"/>
<rect x="1927" y="571" width="78.1851" height="19.1958" fill="#E57100" stroke="black"/>
<path d="M1965.81 662.981V571H2005.43C2005.43 571 2006.03 608.374 2005.56 625.975C2005.09 643.576 1993.49 664.139 1965.81 662.981Z" fill="#E57100" stroke="black"/>
<ellipse cx="1947.05" cy="807.624" rx="19.6563" ry="23.0384" fill="#E57100" stroke="black"/>
<rect x="1927" y="738" width="78.1851" height="19.1958" fill="#E57100" stroke="black"/>
<path d="M1965.81 829.981V738H2005.43C2005.43 738 2006.03 775.374 2005.56 792.975C2005.09 810.576 1993.49 831.139 1965.81 829.981Z" fill="#E57100" stroke="black"/>
<ellipse cx="2084.05" cy="640.624" rx="19.6563" ry="23.0384" fill="#E57100" stroke="black"/>
<rect x="2064" y="571" width="78.1851" height="19.1958" fill="#E57100" stroke="black"/>
<path d="M2102.81 662.981V571H2142.43C2142.43 571 2143.03 608.374 2142.56 625.975C2142.09 643.576 2130.49 664.139 2102.81 662.981Z" fill="#E57100" stroke="black"/>
<ellipse cx="2085.05" cy="806.624" rx="19.6563" ry="23.0384" fill="#E57100" stroke="black"/>
<rect x="2065" y="737" width="78.1851" height="19.1958" fill="#E57100" stroke="black"/>
<path d="M2103.81 828.981V737H2143.43C2143.43 737 2144.03 774.374 2143.56 791.975C2143.09 809.576 2131.49 830.139 2103.81 828.981Z" fill="#E57100" stroke="black"/>
<ellipse cx="2222.05" cy="640.624" rx="19.6563" ry="23.0384" fill="#E57100" stroke="black"/>
<rect x="2202" y="571" width="78.1851" height="19.1958" fill="#E57100" stroke="black"/>
<path d="M2240.81 662.981V571H2280.43C2280.43 571 2281.03 608.374 2280.56 625.975C2280.09 643.576 2268.49 664.139 2240.81 662.981Z" fill="#E57100" stroke="black"/>
<ellipse cx="2222.05" cy="807.624" rx="19.6563" ry="23.0384" fill="#E57100" stroke="black"/>
<rect x="2202" y="738" width="78.1851" height="19.1958" fill="#E57100" stroke="black"/>
<path d="M2240.81 829.981V738H2280.43C2280.43 738 2281.03 775.374 2280.56 792.975C2280.09 810.576 2268.49 831.139 2240.81 829.981Z" fill="#E57100" stroke="black"/>
<ellipse cx="2359.05" cy="640.624" rx="19.6563" ry="23.0384" fill="#E57100" stroke="black"/>
<rect x="2339" y="571" width="78.1851" height="19.1958" fill="#E57100" stroke="black"/>
<path d="M2377.81 662.981V571H2417.43C2417.43 571 2418.03 608.374 2417.56 625.975C2417.09 643.576 2405.49 664.139 2377.81 662.981Z" fill="#E57100" stroke="black"/>
<ellipse cx="2360.05" cy="806.624" rx="19.6563" ry="23.0384" fill="#E57100" stroke="black"/>
<rect x="2340" y="737" width="78.1851" height="19.1958" fill="#E57100" stroke="black"/>
<path d="M2378.81 828.981V737H2418.43C2418.43 737 2419.03 774.374 2418.56 791.975C2418.09 809.576 2406.49 830.139 2378.81 828.981Z" fill="#E57100" stroke="black"/>
<ellipse cx="1671.05" cy="307.624" rx="19.6563" ry="23.0384" fill="#E57100" stroke="black"/>
<rect x="1651" y="238" width="78.1851" height="19.1958" fill="#E57100" stroke="black"/>
<path d="M1689.81 329.981V238H1729.43C1729.43 238 1730.03 275.374 1729.56 292.975C1729.09 310.576 1717.49 331.139 1689.81 329.981Z" fill="#E57100" stroke="black"/>
<ellipse cx="1671.05" cy="474.624" rx="19.6563" ry="23.0384" fill="#E57100" stroke="black"/>
<rect x="1651" y="405" width="78.1851" height="19.1958" fill="#E57100" stroke="black"/>
<path d="M1689.81 496.981V405H1729.43C1729.43 405 1730.03 442.374 1729.56 459.975C1729.09 477.576 1717.49 498.139 1689.81 496.981Z" fill="#E57100" stroke="black"/>
<ellipse cx="1808.05" cy="307.624" rx="19.6563" ry="23.0384" fill="#E57100" stroke="black"/>
<rect x="1788" y="238" width="78.1851" height="19.1958" fill="#E57100" stroke="black"/>
<path d="M1826.81 329.981V238H1866.43C1866.43 238 1867.03 275.374 1866.56 292.975C1866.09 310.576 1854.49 331.139 1826.81 329.981Z" fill="#E57100" stroke="black"/>
<ellipse cx="1809.05" cy="473.624" rx="19.6563" ry="23.0384" fill="#E57100" stroke="black"/>
<rect x="1789" y="404" width="78.1851" height="19.1958" fill="#E57100" stroke="black"/>
<path d="M1827.81 495.981V404H1867.43C1867.43 404 1868.03 441.374 1867.56 458.975C1867.09 476.576 1855.49 497.139 1827.81 495.981Z" fill="#E57100" stroke="black"/>
<ellipse cx="1946.05" cy="307.624" rx="19.6563" ry="23.0384" fill="#E57100" stroke="black"/>
<rect x="1926" y="238" width="78.1851" height="19.1958" fill="#E57100" stroke="black"/>
<path d="M1964.81 329.981V238H2004.43C2004.43 238 2005.03 275.374 2004.56 292.975C2004.09 310.576 1992.49 331.139 1964.81 329.981Z" fill="#E57100" stroke="black"/>
<ellipse cx="1946.05" cy="474.624" rx="19.6563" ry="23.0384" fill="#E57100" stroke="black"/>
<rect x="1926" y="405" width="78.1851" height="19.1958" fill="#E57100" stroke="black"/>
<path d="M1964.81 496.981V405H2004.43C2004.43 405 2005.03 442.374 2004.56 459.975C2004.09 477.576 1992.49 498.139 1964.81 496.981Z" fill="#E57100" stroke="black"/>
<ellipse cx="2083.05" cy="307.624" rx="19.6563" ry="23.0384" fill="#E57100" stroke="black"/>
<rect x="2063" y="238" width="78.1851" height="19.1958" fill="#E57100" stroke="black"/>
<path d="M2101.81 329.981V238H2141.43C2141.43 238 2142.03 275.374 2141.56 292.975C2141.09 310.576 2129.49 331.139 2101.81 329.981Z" fill="#E57100" stroke="black"/>
<ellipse cx="2084.05" cy="473.624" rx="19.6563" ry="23.0384" fill="#E57100" stroke="black"/>
<rect x="2064" y="404" width="78.1851" height="19.1958" fill="#E57100" stroke="black"/>
<path d="M2102.81 495.981V404H2142.43C2142.43 404 2143.03 441.374 2142.56 458.975C2142.09 476.576 2130.49 497.139 2102.81 495.981Z" fill="#E57100" stroke="black"/>
<ellipse cx="2221.05" cy="307.624" rx="19.6563" ry="23.0384" fill="#E57100" stroke="black"/>
<rect x="2201" y="238" width="78.1851" height="19.1958" fill="#E57100" stroke="black"/>
<path d="M2239.81 329.981V238H2279.43C2279.43 238 2280.03 275.374 2279.56 292.975C2279.09 310.576 2267.49 331.139 2239.81 329.981Z" fill="#E57100" stroke="black"/>
<ellipse cx="2221.05" cy="474.624" rx="19.6563" ry="23.0384" fill="#E57100" stroke="black"/>
<rect x="2201" y="405" width="78.1851" height="19.1958" fill="#E57100" stroke="black"/>
<path d="M2239.81 496.981V405H2279.43C2279.43 405 2280.03 442.374 2279.56 459.975C2279.09 477.576 2267.49 498.139 2239.81 496.981Z" fill="#E57100" stroke="black"/>
<ellipse cx="2358.05" cy="307.624" rx="19.6563" ry="23.0384" fill="#E57100" stroke="black"/>
<rect x="2338" y="238" width="78.1851" height="19.1958" fill="#E57100" stroke="black"/>
<path d="M2376.81 329.981V238H2416.43C2416.43 238 2417.03 275.374 2416.56 292.975C2416.09 310.576 2404.49 331.139 2376.81 329.981Z" fill="#E57100" stroke="black"/>
<ellipse cx="2359.05" cy="473.624" rx="19.6563" ry="23.0384" fill="#E57100" stroke="black"/>
<rect x="2339" y="404" width="78.1851" height="19.1958" fill="#E57100" stroke="black"/>
<path d="M2377.81 495.981V404H2417.43C2417.43 404 2418.03 441.374 2417.56 458.975C2417.09 476.576 2405.49 497.139 2377.81 495.981Z" fill="#E57100" stroke="black"/>
<ellipse cx="2499.05" cy="1307.62" rx="19.6563" ry="23.0384" fill="#E57100" stroke="black"/>
<rect x="2479" y="1238" width="78.1851" height="19.1958" fill="#E57100" stroke="black"/>
<path d="M2517.81 1329.98V1238H2557.43C2557.43 1238 2558.03 1275.37 2557.56 1292.98C2557.09 1310.58 2545.49 1331.14 2517.81 1329.98Z" fill="#E57100" stroke="black"/>
<ellipse cx="2499.05" cy="1474.62" rx="19.6563" ry="23.0384" fill="#E57100" stroke="black"/>
<rect x="2479" y="1405" width="78.1851" height="19.1958" fill="#E57100" stroke="black"/>
<path d="M2517.81 1496.98V1405H2557.43C2557.43 1405 2558.03 1442.37 2557.56 1459.98C2557.09 1477.58 2545.49 1498.14 2517.81 1496.98Z" fill="#E57100" stroke="black"/>
<ellipse cx="2636.05" cy="1307.62" rx="19.6563" ry="23.0384" fill="#E57100" stroke="black"/>
<rect x="2616" y="1238" width="78.1851" height="19.1958" fill="#E57100" stroke="black"/>
<path d="M2654.81 1329.98V1238H2694.43C2694.43 1238 2695.03 1275.37 2694.56 1292.98C2694.09 1310.58 2682.49 1331.14 2654.81 1329.98Z" fill="#E57100" stroke="black"/>
<ellipse cx="2637.05" cy="1473.62" rx="19.6563" ry="23.0384" fill="#E57100" stroke="black"/>
<rect x="2617" y="1404" width="78.1851" height="19.1958" fill="#E57100" stroke="black"/>
<path d="M2655.81 1495.98V1404H2695.43C2695.43 1404 2696.03 1441.37 2695.56 1458.98C2695.09 1476.58 2683.49 1497.14 2655.81 1495.98Z" fill="#E57100" stroke="black"/>
<ellipse cx="2774.05" cy="1307.62" rx="19.6563" ry="23.0384" fill="#E57100" stroke="black"/>
<rect x="2754" y="1238" width="78.1851" height="19.1958" fill="#E57100" stroke="black"/>
<path d="M2792.81 1329.98V1238H2832.43C2832.43 1238 2833.03 1275.37 2832.56 1292.98C2832.09 1310.58 2820.49 1331.14 2792.81 1329.98Z" fill="#E57100" stroke="black"/>
<ellipse cx="2774.05" cy="1474.62" rx="19.6563" ry="23.0384" fill="#E57100" stroke="black"/>
<rect x="2754" y="1405" width="78.1851" height="19.1958" fill="#E57100" stroke="black"/>
<path d="M2792.81 1496.98V1405H2832.43C2832.43 1405 2833.03 1442.37 2832.56 1459.98C2832.09 1477.58 2820.49 1498.14 2792.81 1496.98Z" fill="#E57100" stroke="black"/>
<ellipse cx="2499.05" cy="1307.62" rx="19.6563" ry="23.0384" fill="#E57100" stroke="black"/>
<rect x="2479" y="1238" width="78.1851" height="19.1958" fill="#E57100" stroke="black"/>
<path d="M2517.81 1329.98V1238H2557.43C2557.43 1238 2558.03 1275.37 2557.56 1292.98C2557.09 1310.58 2545.49 1331.14 2517.81 1329.98Z" fill="#E57100" stroke="black"/>
<ellipse cx="2499.05" cy="1474.62" rx="19.6563" ry="23.0384" fill="#E57100" stroke="black"/>
<rect x="2479" y="1405" width="78.1851" height="19.1958" fill="#E57100" stroke="black"/>
<path d="M2517.81 1496.98V1405H2557.43C2557.43 1405 2558.03 1442.37 2557.56 1459.98C2557.09 1477.58 2545.49 1498.14 2517.81 1496.98Z" fill="#E57100" stroke="black"/>
<ellipse cx="2636.05" cy="1307.62" rx="19.6563" ry="23.0384" fill="#E57100" stroke="black"/>
<rect x="2616" y="1238" width="78.1851" height="19.1958" fill="#E57100" stroke="black"/>
<path d="M2654.81 1329.98V1238H2694.43C2694.43 1238 2695.03 1275.37 2694.56 1292.98C2694.09 1310.58 2682.49 1331.14 2654.81 1329.98Z" fill="#E57100" stroke="black"/>
<ellipse cx="2637.05" cy="1473.62" rx="19.6563" ry="23.0384" fill="#E57100" stroke="black"/>
<rect x="2617" y="1404" width="78.1851" height="19.1958" fill="#E57100" stroke="black"/>
<path d="M2655.81 1495.98V1404H2695.43C2695.43 1404 2696.03 1441.37 2695.56 1458.98C2695.09 1476.58 2683.49 1497.14 2655.81 1495.98Z" fill="#E57100" stroke="black"/>
<ellipse cx="2774.05" cy="1307.62" rx="19.6563" ry="23.0384" fill="#E57100" stroke="black"/>
<rect x="2754" y="1238" width="78.1851" height="19.1958" fill="#E57100" stroke="black"/>
<path d="M2792.81 1329.98V1238H2832.43C2832.43 1238 2833.03 1275.37 2832.56 1292.98C2832.09 1310.58 2820.49 1331.14 2792.81 1329.98Z" fill="#E57100" stroke="black"/>
<ellipse cx="2774.05" cy="1474.62" rx="19.6563" ry="23.0384" fill="#E57100" stroke="black"/>
<rect x="2754" y="1405" width="78.1851" height="19.1958" fill="#E57100" stroke="black"/>
<path d="M2792.81 1496.98V1405H2832.43C2832.43 1405 2833.03 1442.37 2832.56 1459.98C2832.09 1477.58 2820.49 1498.14 2792.81 1496.98Z" fill="#E57100" stroke="black"/>
<ellipse cx="2498.05" cy="974.624" rx="19.6563" ry="23.0384" fill="#E57100" stroke="black"/>
<rect x="2478" y="905" width="78.1851" height="19.1958" fill="#E57100" stroke="black"/>
<path d="M2516.81 996.981V905H2556.43C2556.43 905 2557.03 942.374 2556.56 959.975C2556.09 977.576 2544.49 998.139 2516.81 996.981Z" fill="#E57100" stroke="black"/>
<ellipse cx="2498.05" cy="1141.62" rx="19.6563" ry="23.0384" fill="#E57100" stroke="black"/>
<rect x="2478" y="1072" width="78.1851" height="19.1958" fill="#E57100" stroke="black"/>
<path d="M2516.81 1163.98V1072H2556.43C2556.43 1072 2557.03 1109.37 2556.56 1126.98C2556.09 1144.58 2544.49 1165.14 2516.81 1163.98Z" fill="#E57100" stroke="black"/>
<ellipse cx="2635.05" cy="974.624" rx="19.6563" ry="23.0384" fill="#E57100" stroke="black"/>
<rect x="2615" y="905" width="78.1851" height="19.1958" fill="#E57100" stroke="black"/>
<path d="M2653.81 996.981V905H2693.43C2693.43 905 2694.03 942.374 2693.56 959.975C2693.09 977.576 2681.49 998.139 2653.81 996.981Z" fill="#E57100" stroke="black"/>
<ellipse cx="2636.05" cy="1140.62" rx="19.6563" ry="23.0384" fill="#E57100" stroke="black"/>
<rect x="2616" y="1071" width="78.1851" height="19.1958" fill="#E57100" stroke="black"/>
<path d="M2654.81 1162.98V1071H2694.43C2694.43 1071 2695.03 1108.37 2694.56 1125.98C2694.09 1143.58 2682.49 1164.14 2654.81 1162.98Z" fill="#E57100" stroke="black"/>
<ellipse cx="2773.05" cy="974.624" rx="19.6563" ry="23.0384" fill="#E57100" stroke="black"/>
<rect x="2753" y="905" width="78.1851" height="19.1958" fill="#E57100" stroke="black"/>
<path d="M2791.81 996.981V905H2831.43C2831.43 905 2832.03 942.374 2831.56 959.975C2831.09 977.576 2819.49 998.139 2791.81 996.981Z" fill="#E57100" stroke="black"/>
<ellipse cx="2773.05" cy="1141.62" rx="19.6563" ry="23.0384" fill="#E57100" stroke="black"/>
<rect x="2753" y="1072" width="78.1851" height="19.1958" fill="#E57100" stroke="black"/>
<path d="M2791.81 1163.98V1072H2831.43C2831.43 1072 2832.03 1109.37 2831.56 1126.98C2831.09 1144.58 2819.49 1165.14 2791.81 1163.98Z" fill="#E57100" stroke="black"/>
<ellipse cx="2498.05" cy="641.624" rx="19.6563" ry="23.0384" fill="#E57100" stroke="black"/>
<rect x="2478" y="572" width="78.1851" height="19.1958" fill="#E57100" stroke="black"/>
<path d="M2516.81 663.981V572H2556.43C2556.43 572 2557.03 609.374 2556.56 626.975C2556.09 644.576 2544.49 665.139 2516.81 663.981Z" fill="#E57100" stroke="black"/>
<ellipse cx="2498.05" cy="808.624" rx="19.6563" ry="23.0384" fill="#E57100" stroke="black"/>
<rect x="2478" y="739" width="78.1851" height="19.1958" fill="#E57100" stroke="black"/>
<path d="M2516.81 830.981V739H2556.43C2556.43 739 2557.03 776.374 2556.56 793.975C2556.09 811.576 2544.49 832.139 2516.81 830.981Z" fill="#E57100" stroke="black"/>
<ellipse cx="2635.05" cy="641.624" rx="19.6563" ry="23.0384" fill="#E57100" stroke="black"/>
<rect x="2615" y="572" width="78.1851" height="19.1958" fill="#E57100" stroke="black"/>
<path d="M2653.81 663.981V572H2693.43C2693.43 572 2694.03 609.374 2693.56 626.975C2693.09 644.576 2681.49 665.139 2653.81 663.981Z" fill="#E57100" stroke="black"/>
<ellipse cx="2636.05" cy="807.624" rx="19.6563" ry="23.0384" fill="#E57100" stroke="black"/>
<rect x="2616" y="738" width="78.1851" height="19.1958" fill="#E57100" stroke="black"/>
<path d="M2654.81 829.981V738H2694.43C2694.43 738 2695.03 775.374 2694.56 792.975C2694.09 810.576 2682.49 831.139 2654.81 829.981Z" fill="#E57100" stroke="black"/>
<ellipse cx="2773.05" cy="641.624" rx="19.6563" ry="23.0384" fill="#E57100" stroke="black"/>
<rect x="2753" y="572" width="78.1851" height="19.1958" fill="#E57100" stroke="black"/>
<path d="M2791.81 663.981V572H2831.43C2831.43 572 2832.03 609.374 2831.56 626.975C2831.09 644.576 2819.49 665.139 2791.81 663.981Z" fill="#E57100" stroke="black"/>
<ellipse cx="2773.05" cy="808.624" rx="19.6563" ry="23.0384" fill="#E57100" stroke="black"/>
<rect x="2753" y="739" width="78.1851" height="19.1958" fill="#E57100" stroke="black"/>
<path d="M2791.81 830.981V739H2831.43C2831.43 739 2832.03 776.374 2831.56 793.975C2831.09 811.576 2819.49 832.139 2791.81 830.981Z" fill="#E57100" stroke="black"/>
<ellipse cx="2498.05" cy="641.624" rx="19.6563" ry="23.0384" fill="#E57100" stroke="black"/>
<rect x="2478" y="572" width="78.1851" height="19.1958" fill="#E57100" stroke="black"/>
<path d="M2516.81 663.981V572H2556.43C2556.43 572 2557.03 609.374 2556.56 626.975C2556.09 644.576 2544.49 665.139 2516.81 663.981Z" fill="#E57100" stroke="black"/>
<ellipse cx="2498.05" cy="808.624" rx="19.6563" ry="23.0384" fill="#E57100" stroke="black"/>
<rect x="2478" y="739" width="78.1851" height="19.1958" fill="#E57100" stroke="black"/>
<path d="M2516.81 830.981V739H2556.43C2556.43 739 2557.03 776.374 2556.56 793.975C2556.09 811.576 2544.49 832.139 2516.81 830.981Z" fill="#E57100" stroke="black"/>
<ellipse cx="2635.05" cy="641.624" rx="19.6563" ry="23.0384" fill="#E57100" stroke="black"/>
<rect x="2615" y="572" width="78.1851" height="19.1958" fill="#E57100" stroke="black"/>
<path d="M2653.81 663.981V572H2693.43C2693.43 572 2694.03 609.374 2693.56 626.975C2693.09 644.576 2681.49 665.139 2653.81 663.981Z" fill="#E57100" stroke="black"/>
<ellipse cx="2636.05" cy="807.624" rx="19.6563" ry="23.0384" fill="#E57100" stroke="black"/>
<rect x="2616" y="738" width="78.1851" height="19.1958" fill="#E57100" stroke="black"/>
<path d="M2654.81 829.981V738H2694.43C2694.43 738 2695.03 775.374 2694.56 792.975C2694.09 810.576 2682.49 831.139 2654.81 829.981Z" fill="#E57100" stroke="black"/>
<ellipse cx="2773.05" cy="641.624" rx="19.6563" ry="23.0384" fill="#E57100" stroke="black"/>
<rect x="2753" y="572" width="78.1851" height="19.1958" fill="#E57100" stroke="black"/>
<path d="M2791.81 663.981V572H2831.43C2831.43 572 2832.03 609.374 2831.56 626.975C2831.09 644.576 2819.49 665.139 2791.81 663.981Z" fill="#E57100" stroke="black"/>
<ellipse cx="2773.05" cy="808.624" rx="19.6563" ry="23.0384" fill="#E57100" stroke="black"/>
<rect x="2753" y="739" width="78.1851" height="19.1958" fill="#E57100" stroke="black"/>
<path d="M2791.81 830.981V739H2831.43C2831.43 739 2832.03 776.374 2831.56 793.975C2831.09 811.576 2819.49 832.139 2791.81 830.981Z" fill="#E57100" stroke="black"/>
<ellipse cx="2497.05" cy="308.624" rx="19.6563" ry="23.0384" fill="#E57100" stroke="black"/>
<rect x="2477" y="239" width="78.1851" height="19.1958" fill="#E57100" stroke="black"/>
<path d="M2515.81 330.981V239H2555.43C2555.43 239 2556.03 276.374 2555.56 293.975C2555.09 311.576 2543.49 332.139 2515.81 330.981Z" fill="#E57100" stroke="black"/>
<ellipse cx="2497.05" cy="475.624" rx="19.6563" ry="23.0384" fill="#E57100" stroke="black"/>
<rect x="2477" y="406" width="78.1851" height="19.1958" fill="#E57100" stroke="black"/>
<path d="M2515.81 497.981V406H2555.43C2555.43 406 2556.03 443.374 2555.56 460.975C2555.09 478.576 2543.49 499.139 2515.81 497.981Z" fill="#E57100" stroke="black"/>
<ellipse cx="2634.05" cy="308.624" rx="19.6563" ry="23.0384" fill="#E57100" stroke="black"/>
<rect x="2614" y="239" width="78.1851" height="19.1958" fill="#E57100" stroke="black"/>
<path d="M2652.81 330.981V239H2692.43C2692.43 239 2693.03 276.374 2692.56 293.975C2692.09 311.576 2680.49 332.139 2652.81 330.981Z" fill="#E57100" stroke="black"/>
<ellipse cx="2635.05" cy="474.624" rx="19.6563" ry="23.0384" fill="#E57100" stroke="black"/>
<rect x="2615" y="405" width="78.1851" height="19.1958" fill="#E57100" stroke="black"/>
<path d="M2653.81 496.981V405H2693.43C2693.43 405 2694.03 442.374 2693.56 459.975C2693.09 477.576 2681.49 498.139 2653.81 496.981Z" fill="#E57100" stroke="black"/>
<ellipse cx="2772.05" cy="308.624" rx="19.6563" ry="23.0384" fill="#E57100" stroke="black"/>
<rect x="2752" y="239" width="78.1851" height="19.1958" fill="#E57100" stroke="black"/>
<path d="M2790.81 330.981V239H2830.43C2830.43 239 2831.03 276.374 2830.56 293.975C2830.09 311.576 2818.49 332.139 2790.81 330.981Z" fill="#E57100" stroke="black"/>
<ellipse cx="20.0548" cy="138.624" rx="19.6563" ry="23.0384" fill="#E57100" stroke="black"/>
<rect y="69" width="78.1851" height="19.1958" fill="#E57100" stroke="black"/>
<path d="M38.8145 160.981V69.0002H78.4332C78.4332 69.0002 79.0274 106.374 78.5585 123.975C78.0895 141.576 66.4941 162.139 38.8145 160.981Z" fill="#E57100" stroke="black"/>
<ellipse cx="157.055" cy="138.624" rx="19.6563" ry="23.0384" fill="#E57100" stroke="black"/>
<rect x="137" y="69" width="78.1851" height="19.1958" fill="#E57100" stroke="black"/>
<path d="M175.814 160.981V69.0002H215.433C215.433 69.0002 216.027 106.374 215.558 123.975C215.09 141.576 203.494 162.139 175.814 160.981Z" fill="#E57100" stroke="black"/>
<ellipse cx="295.055" cy="138.624" rx="19.6563" ry="23.0384" fill="#E57100" stroke="black"/>
<rect x="275" y="69" width="78.1851" height="19.1958" fill="#E57100" stroke="black"/>
<path d="M313.814 160.981V69.0002H353.433C353.433 69.0002 354.027 106.374 353.558 123.975C353.09 141.576 341.494 162.139 313.814 160.981Z" fill="#E57100" stroke="black"/>
<ellipse cx="432.055" cy="138.624" rx="19.6563" ry="23.0384" fill="#E57100" stroke="black"/>
<rect x="412" y="69" width="78.1851" height="19.1958" fill="#E57100" stroke="black"/>
<path d="M450.814 160.981V69.0002H490.433C490.433 69.0002 491.027 106.374 490.558 123.975C490.09 141.576 478.494 162.139 450.814 160.981Z" fill="#E57100" stroke="black"/>
<ellipse cx="570.055" cy="138.624" rx="19.6563" ry="23.0384" fill="#E57100" stroke="black"/>
<rect x="550" y="69" width="78.1851" height="19.1958" fill="#E57100" stroke="black"/>
<path d="M588.814 160.981V69.0002H628.433C628.433 69.0002 629.027 106.374 628.558 123.975C628.09 141.576 616.494 162.139 588.814 160.981Z" fill="#E57100" stroke="black"/>
<ellipse cx="707.055" cy="138.624" rx="19.6563" ry="23.0384" fill="#E57100" stroke="black"/>
<rect x="687" y="69" width="78.1851" height="19.1958" fill="#E57100" stroke="black"/>
<path d="M725.814 160.981V69.0002H765.433C765.433 69.0002 766.027 106.374 765.558 123.975C765.09 141.576 753.494 162.139 725.814 160.981Z" fill="#E57100" stroke="black"/>
<ellipse cx="846.055" cy="139.624" rx="19.6563" ry="23.0384" fill="#E57100" stroke="black"/>
<rect x="826" y="70" width="78.1851" height="19.1958" fill="#E57100" stroke="black"/>
<path d="M864.814 161.981V70.0002H904.433C904.433 70.0002 905.027 107.374 904.558 124.975C904.09 142.576 892.494 163.139 864.814 161.981Z" fill="#E57100" stroke="black"/>
<ellipse cx="983.055" cy="139.624" rx="19.6563" ry="23.0384" fill="#E57100" stroke="black"/>
<rect x="963" y="70" width="78.1851" height="19.1958" fill="#E57100" stroke="black"/>
<path d="M1001.81 161.981V70.0002H1041.43C1041.43 70.0002 1042.03 107.374 1041.56 124.975C1041.09 142.576 1029.49 163.139 1001.81 161.981Z" fill="#E57100" stroke="black"/>
<ellipse cx="1121.05" cy="139.624" rx="19.6563" ry="23.0384" fill="#E57100" stroke="black"/>
<rect x="1101" y="70" width="78.1851" height="19.1958" fill="#E57100" stroke="black"/>
<path d="M1139.81 161.981V70.0002H1179.43C1179.43 70.0002 1180.03 107.374 1179.56 124.975C1179.09 142.576 1167.49 163.139 1139.81 161.981Z" fill="#E57100" stroke="black"/>
<ellipse cx="1258.05" cy="139.624" rx="19.6563" ry="23.0384" fill="#E57100" stroke="black"/>
<rect x="1238" y="70" width="78.1851" height="19.1958" fill="#E57100" stroke="black"/>
<path d="M1276.81 161.981V70.0002H1316.43C1316.43 70.0002 1317.03 107.374 1316.56 124.975C1316.09 142.576 1304.49 163.139 1276.81 161.981Z" fill="#E57100" stroke="black"/>
<ellipse cx="1396.05" cy="139.624" rx="19.6563" ry="23.0384" fill="#E57100" stroke="black"/>
<rect x="1376" y="70" width="78.1851" height="19.1958" fill="#E57100" stroke="black"/>
<path d="M1414.81 161.981V70.0002H1454.43C1454.43 70.0002 1455.03 107.374 1454.56 124.975C1454.09 142.576 1442.49 163.139 1414.81 161.981Z" fill="#E57100" stroke="black"/>
<ellipse cx="1533.05" cy="139.624" rx="19.6563" ry="23.0384" fill="#E57100" stroke="black"/>
<rect x="1513" y="70" width="78.1851" height="19.1958" fill="#E57100" stroke="black"/>
<path d="M1551.81 161.981V70.0002H1591.43C1591.43 70.0002 1592.03 107.374 1591.56 124.975C1591.09 142.576 1579.49 163.139 1551.81 161.981Z" fill="#E57100" stroke="black"/>
<ellipse cx="1671.05" cy="139.624" rx="19.6563" ry="23.0384" fill="#E57100" stroke="black"/>
<rect x="1651" y="70" width="78.1851" height="19.1958" fill="#E57100" stroke="black"/>
<path d="M1689.81 161.981V70.0002H1729.43C1729.43 70.0002 1730.03 107.374 1729.56 124.975C1729.09 142.576 1717.49 163.139 1689.81 161.981Z" fill="#E57100" stroke="black"/>
<ellipse cx="1808.05" cy="139.624" rx="19.6563" ry="23.0384" fill="#E57100" stroke="black"/>
<rect x="1788" y="70" width="78.1851" height="19.1958" fill="#E57100" stroke="black"/>
<path d="M1826.81 161.981V70.0002H1866.43C1866.43 70.0002 1867.03 107.374 1866.56 124.975C1866.09 142.576 1854.49 163.139 1826.81 161.981Z" fill="#E57100" stroke="black"/>
<ellipse cx="1946.05" cy="139.624" rx="19.6563" ry="23.0384" fill="#E57100" stroke="black"/>
<rect x="1926" y="70" width="78.1851" height="19.1958" fill="#E57100" stroke="black"/>
<path d="M1964.81 161.981V70.0002H2004.43C2004.43 70.0002 2005.03 107.374 2004.56 124.975C2004.09 142.576 1992.49 163.139 1964.81 161.981Z" fill="#E57100" stroke="black"/>
<ellipse cx="2083.05" cy="139.624" rx="19.6563" ry="23.0384" fill="#E57100" stroke="black"/>
<rect x="2063" y="70" width="78.1851" height="19.1958" fill="#E57100" stroke="black"/>
<path d="M2101.81 161.981V70.0002H2141.43C2141.43 70.0002 2142.03 107.374 2141.56 124.975C2141.09 142.576 2129.49 163.139 2101.81 161.981Z" fill="#E57100" stroke="black"/>
<ellipse cx="2221.05" cy="139.624" rx="19.6563" ry="23.0384" fill="#E57100" stroke="black"/>
<rect x="2201" y="70" width="78.1851" height="19.1958" fill="#E57100" stroke="black"/>
<path d="M2239.81 161.981V70.0002H2279.43C2279.43 70.0002 2280.03 107.374 2279.56 124.975C2279.09 142.576 2267.49 163.139 2239.81 161.981Z" fill="#E57100" stroke="black"/>
<ellipse cx="2358.05" cy="139.624" rx="19.6563" ry="23.0384" fill="#E57100" stroke="black"/>
<rect x="2338" y="70" width="78.1851" height="19.1958" fill="#E57100" stroke="black"/>
<path d="M2376.81 161.981V70.0002H2416.43C2416.43 70.0002 2417.03 107.374 2416.56 124.975C2416.09 142.576 2404.49 163.139 2376.81 161.981Z" fill="#E57100" stroke="black"/>
<ellipse cx="2497.05" cy="140.624" rx="19.6563" ry="23.0384" fill="#E57100" stroke="black"/>
<rect x="2477" y="71" width="78.1851" height="19.1958" fill="#E57100" stroke="black"/>
<path d="M2515.81 162.981V71.0002H2555.43C2555.43 71.0002 2556.03 108.374 2555.56 125.975C2555.09 143.576 2543.49 164.139 2515.81 162.981Z" fill="#E57100" stroke="black"/>
<ellipse cx="2634.05" cy="140.624" rx="19.6563" ry="23.0384" fill="#E57100" stroke="black"/>
<rect x="2614" y="71" width="78.1851" height="19.1958" fill="#E57100" stroke="black"/>
<path d="M2652.81 162.981V71.0002H2692.43C2692.43 71.0002 2693.03 108.374 2692.56 125.975C2692.09 143.576 2680.49 164.139 2652.81 162.981Z" fill="#E57100" stroke="black"/>
<ellipse cx="2772.05" cy="140.624" rx="19.6563" ry="23.0384" fill="#E57100" stroke="black"/>
<rect x="2752" y="71" width="78.1851" height="19.1958" fill="#E57100" stroke="black"/>
<path d="M2790.81 162.981V71.0002H2830.43C2830.43 71.0002 2831.03 108.374 2830.56 125.975C2830.09 143.576 2818.49 164.139 2790.81 162.981Z" fill="#E57100" stroke="black"/>
<ellipse cx="2772.05" cy="475.624" rx="19.6563" ry="23.0384" fill="#E57100" stroke="black"/>
<rect x="2752" y="406" width="78.1851" height="19.1958" fill="#E57100" stroke="black"/>
<path d="M2790.81 497.981V406H2830.43C2830.43 406 2831.03 443.374 2830.56 460.975C2830.09 478.576 2818.49 499.139 2790.81 497.981Z" fill="#E57100" stroke="black"/>
</g>
<defs>
<clipPath id="clip0_956_25930">
<rect width="2890" height="1501" fill="white"/>
</clipPath>
</defs>
</svg>
